<svg width="230" height="63" viewBox="0 0 230 63" fill="none" xmlns="http://www.w3.org/2000/svg">
<path d="M230.001 3.47639V10.4292H223.049V3.47639H216.096V0H226.525V3.47639H230.001ZM212.619 3.47639H216.096V13.9055H223.049V17.3819H212.619V27.8111H209.143V38.2402H205.667V48.6694H202.19V55.6221H198.714V59.0985H195.238V48.6694H198.714V38.2402H202.19V27.8111H205.667V17.3819H198.714V13.9055H209.143V6.95277H212.619V3.47639ZM195.238 59.0985V62.5749H184.808V59.0985H181.332V52.1458H188.285V59.0985H195.238Z" fill="white"/>
<path d="M170.874 24.3354V27.8118H167.398V31.2882H163.921V38.2409H160.445V48.6701H153.492V38.2409H156.969V27.8118H160.445V17.3826H156.969V13.9062H167.398V24.3354H170.874ZM191.732 17.3826V27.8118H188.256V38.2409H184.78V45.1937H188.256V48.6701H177.827V38.2409H181.303V27.8118H184.78V20.859H181.303V17.3826H177.827V13.9062H188.256V17.3826H191.732ZM153.492 17.3826H156.969V20.859H153.492V17.3826ZM174.35 17.3826H177.827V20.859H174.35V17.3826ZM170.874 20.859H174.35V24.3354H170.874V20.859ZM191.732 45.1937H188.256V41.7173H191.732V45.1937Z" fill="white"/>
<path d="M148.553 20.859V34.7645H145.077V41.7173H141.6V45.1937H134.647V41.7173H138.124V34.7645H141.6V20.859H138.124V17.3826H127.695V13.9062H141.6V17.3826H145.077V20.859H148.553ZM134.647 48.6701H120.742V45.1937H117.265V41.7173H113.789V27.8118H117.265V20.859H120.742V17.3826H127.695V20.859H124.218V27.8118H120.742V41.7173H124.218V45.1937H134.647V48.6701Z" fill="white"/>
<path d="M108.834 17.3826V27.8118H101.882V17.3826H91.4524V13.9062H105.358V17.3826H108.834ZM91.4524 17.3826V20.859H87.976V27.8118H84.4996V41.7173H87.976V45.1937H98.4052V48.6701H84.4996V45.1937H81.0233V41.7173H77.5469V27.8118H81.0233V20.859H84.4996V17.3826H91.4524ZM108.834 41.7173H105.358V38.2409H108.834V41.7173ZM98.4052 45.1937V41.7173H105.358V45.1937H98.4052Z" fill="white"/>
<path d="M69.4899 47.6735C69.4899 48.7706 68.6005 49.66 67.5034 49.66H59.0607C57.9636 49.66 57.0742 48.7706 57.0742 47.6735V14.9865C57.0742 13.8894 57.9636 13 59.0607 13H67.5034C68.6005 13 69.4899 13.8894 69.4899 14.9865V47.6735Z" fill="white"/>
<path d="M69.4899 7.6735C69.4899 8.77061 68.6005 9.66 67.5034 9.66H59.0607C57.9636 9.66 57.0742 8.77061 57.0742 7.67349V1.9865C57.0742 0.889388 57.9636 0 59.0607 0H67.5034C68.6005 0 69.4899 0.889389 69.4899 1.9865V7.6735Z" fill="white"/>
<path d="M25.5014 2.98146C26.2661 1.65727 28.1772 1.65718 28.9418 2.98146L54.1742 46.6846C54.9389 48.0089 53.9828 49.6641 52.4535 49.6641H38.0063L34.5229 43.6309H19.7573L16.2739 49.6641H1.98968C0.460529 49.6641 -0.495458 48.0089 0.268974 46.6846L25.5014 2.98146ZM28.5033 19.7559C28.0284 18.447 26.1775 18.447 25.7026 19.7559L24.0502 24.3125C23.902 24.721 23.5827 25.0447 23.1762 25.1983L18.6274 26.916C17.3426 27.4011 17.3426 29.218 18.6274 29.7031L23.1762 31.4209C23.5828 31.5745 23.902 31.898 24.0502 32.3067L25.7026 36.8623C26.1774 38.1716 28.0286 38.1716 28.5033 36.8623L30.1557 32.3067C30.3039 31.8981 30.6232 31.5746 31.0297 31.4209L35.5785 29.7031C36.8633 29.218 36.8633 27.4011 35.5785 26.916L31.0297 25.1983C30.6232 25.0447 30.3039 24.721 30.1557 24.3125L28.5033 19.7559Z" fill="white"/>
</svg>
