<svg width="464" height="126" viewBox="0 0 464 126" fill="none" xmlns="http://www.w3.org/2000/svg">
<path d="M463.203 7V21H449.203V7H435.203V0H456.203V7H463.203ZM428.203 7H435.203V28H449.203V35H428.203V56H421.203V77H414.203V98H407.203V112H400.203V119H393.203V98H400.203V77H407.203V56H414.203V35H400.203V28H421.203V14H428.203V7ZM393.203 119V126H372.203V119H365.203V105H379.203V119H393.203Z" fill="white"/>
<path d="M344.148 49V56H337.148V63H330.148V77H323.148V98H309.148V77H316.148V56H323.148V35H316.148V28H337.148V49H344.148ZM386.148 35V56H379.148V77H372.148V91H379.148V98H358.148V77H365.148V56H372.148V42H365.148V35H358.148V28H379.148V35H386.148ZM309.148 35H316.148V42H309.148V35ZM351.148 35H358.148V42H351.148V35ZM344.148 42H351.148V49H344.148V42ZM386.148 91H379.148V84H386.148V91Z" fill="white"/>
<path d="M299.203 42V70H292.203V84H285.203V91H271.203V84H278.203V70H285.203V42H278.203V35H257.203V28H285.203V35H292.203V42H299.203ZM271.203 98H243.203V91H236.203V84H229.203V56H236.203V42H243.203V35H257.203V42H250.203V56H243.203V84H250.203V91H271.203V98Z" fill="white"/>
<path d="M219.227 35V56H205.227V35H184.227V28H212.227V35H219.227ZM184.227 35V42H177.227V56H170.227V84H177.227V91H198.227V98H170.227V91H163.227V84H156.227V56H163.227V42H170.227V35H184.227ZM219.227 84H212.227V77H219.227V84ZM198.227 91V84H212.227V91H198.227Z" fill="white"/>
<path d="M140 96C140 98.2091 138.209 100 136 100H119C116.791 100 115 98.2091 115 96V4C115 1.79086 116.791 0 119 0H136C138.209 0 140 1.79086 140 4V96Z" fill="white"/>
<path d="M51.4268 6C52.9664 3.33344 56.8149 3.33339 58.3545 6L109.162 94C110.702 96.6667 108.777 100 105.698 100H76.6074L69.5928 87.8506H39.8613L32.8467 100H4.08398C1.00492 99.9998 -0.919402 96.6666 0.620117 94L51.4268 6ZM57.4736 39.7783C56.5176 37.142 52.79 37.142 51.834 39.7783L48.5068 48.9521C48.2083 49.775 47.565 50.4261 46.7461 50.7354L37.5869 54.1943C34.9999 55.1712 34.9999 58.8308 37.5869 59.8076L46.7461 63.2656C47.5651 63.5749 48.2084 64.2268 48.5068 65.0498L51.834 74.2236C52.7902 76.8595 56.5174 76.8595 57.4736 74.2236L60.8008 65.0498C61.0992 64.2268 61.7425 63.5749 62.5615 63.2656L71.7207 59.8076C74.3077 58.8308 74.3077 55.1712 71.7207 54.1943L62.5615 50.7354C61.7426 50.4261 61.0993 49.775 60.8008 48.9521L57.4736 39.7783Z" fill="white"/>
</svg>
