<svg width="60" height="60" viewBox="0 0 60 60" fill="none" xmlns="http://www.w3.org/2000/svg">
<g clip-path="url(#clip0_1775_531)">
<g filter="url(#filter0_d_1775_531)">
<path d="M44.4736 34.0726L38.2197 44.8792C38.1197 45.0293 37.9692 45.1798 37.8691 45.2298C37.419 45.4796 36.8693 45.2794 36.6191 44.8294L19.8594 14.6615H33.7168L44.4736 34.0726ZM29.0645 33.8724C29.0645 33.8724 27.6637 36.2741 26.2129 38.8255L25.9121 39.3763C25.8623 39.4263 25.8624 39.4766 25.8125 39.5765L25.6123 39.9261C24.162 42.4267 22.8117 44.7277 22.7607 44.8792C22.7107 44.9793 22.5102 45.1798 22.4102 45.2298C22.3102 45.2798 22.1605 45.3293 22.0605 45.3294H21.8096C21.5595 45.3292 21.3092 45.1291 21.1592 44.9291L21.1094 44.8792L5.09961 16.0121C5.04962 15.8621 5 15.7118 5 15.5619C5.00008 15.0616 5.40036 14.6615 5.85059 14.6615H18.4082L29.0645 33.8724ZM54.0791 14.6615C54.2291 14.6615 54.3793 14.7111 54.5293 14.7611C54.9795 15.0112 55.1298 15.5619 54.8799 16.0121L45.1738 32.7718L35.1182 14.6615H54.0791Z" fill="white"/>
</g>
</g>
<defs>
<filter id="filter0_d_1775_531" x="-95" y="-81.3385" width="250" height="230.677" filterUnits="userSpaceOnUse" color-interpolation-filters="sRGB">
<feFlood flood-opacity="0" result="BackgroundImageFix"/>
<feColorMatrix in="SourceAlpha" type="matrix" values="0 0 0 0 0 0 0 0 0 0 0 0 0 0 0 0 0 0 127 0" result="hardAlpha"/>
<feOffset dy="4"/>
<feGaussianBlur stdDeviation="50"/>
<feComposite in2="hardAlpha" operator="out"/>
<feColorMatrix type="matrix" values="0 0 0 0 0 0 0 0 0 0 0 0 0 0 0 0 0 0 0.45 0"/>
<feBlend mode="normal" in2="BackgroundImageFix" result="effect1_dropShadow_1775_531"/>
<feBlend mode="normal" in="SourceGraphic" in2="effect1_dropShadow_1775_531" result="shape"/>
</filter>
<clipPath id="clip0_1775_531">
<rect width="60" height="60" rx="10" fill="white"/>
</clipPath>
</defs>
</svg>
