<?xml version="1.0" standalone="no"?>
<!DOCTYPE svg PUBLIC "-//W3C//DTD SVG 1.1//EN" "http://www.w3.org/Graphics/SVG/1.1/DTD/svg11.dtd">
<svg xmlns="http://www.w3.org/2000/svg" id="Layer_2" data-name="Layer 2" viewBox="0 0 593.21 191.1" width="593.2100219726562" height="191.10000610351562">
  <defs>
    <style>
      .cls-1, .cls-2, .cls-3 {
        fill: #fff;
      }

      .cls-2 {
        opacity: .3;
      }

      .cls-4 {
        fill: #00a8a6;
      }

      .cls-3 {
        opacity: .6;
      }

      .cls-5 {
        fill: #88e5e1;
      }
    </style>
  </defs>
  <g id="CareBoarding_Primary_White" data-name="CareBoarding Primary White">
    <g>
      <path class="cls-2" d="M94.46,188.92C42.38,188.92,0,146.55,0,94.46S42.38,0,94.46,0s94.46,42.38,94.46,94.46-42.38,94.46-94.46,94.46Z"/>
      <path class="cls-3" d="M94.46,174.63c-44.21,0-80.17-35.96-80.17-80.17S50.25,14.29,94.46,14.29s80.17,35.96,80.17,80.17-35.96,80.17-80.17,80.17Z"/>
      <circle class="cls-1" cx="94.46" cy="94.46" r="65.88"/>
      <path class="cls-5" d="M78.94,79.65v29.62h-15.83c-4.09,0-7.79-1.66-10.47-4.34-2.68-2.68-4.34-6.38-4.34-10.47,0-8.18,6.63-14.81,14.81-14.81h15.83Z"/>
      <path class="cls-5" d="M108.56,109.27v15.83c0,8.18-6.63,14.81-14.81,14.81s-14.81-6.63-14.81-14.81v-15.83h29.62Z"/>
      <path class="cls-4" d="M139.2,94.46c0,8.18-6.63,14.81-14.81,14.81h-45.46v-45.45c0-8.18,6.63-14.81,14.81-14.81,4.09,0,7.79,1.66,10.47,4.34,2.68,2.68,4.34,6.38,4.34,10.47v15.83h15.83c4.09,0,7.79,1.66,10.47,4.34,2.68,2.68,4.34,6.38,4.34,10.47Z"/>
      <g>
        <path class="cls-1" d="M278.33,62.39l-13.07-.07-.06.31c-.36,1.92-1.03,3.65-1.98,5.14-.95,1.49-2.13,2.77-3.5,3.79-1.38,1.02-2.95,1.81-4.67,2.33-1.72.53-3.6.79-5.58.79-3.56,0-6.76-.88-9.51-2.63-2.75-1.74-4.94-4.37-6.52-7.82-1.59-3.46-2.39-7.8-2.39-12.88s.8-9.29,2.37-12.75c1.57-3.44,3.76-6.1,6.52-7.89,2.76-1.79,5.98-2.69,9.56-2.69,2.02,0,3.93.28,5.67.82,1.74.54,3.31,1.36,4.68,2.43,1.36,1.07,2.52,2.38,3.44,3.9.92,1.52,1.55,3.3,1.9,5.26l.05.31h13.07l-.06-.42c-.51-3.79-1.61-7.21-3.26-10.17-1.65-2.96-3.79-5.51-6.34-7.56-2.55-2.05-5.5-3.63-8.76-4.7-3.25-1.06-6.82-1.6-10.6-1.6-5.93,0-11.32,1.4-16.01,4.17-4.7,2.77-8.46,6.82-11.19,12.03-2.72,5.21-4.1,11.55-4.1,18.85s1.37,13.62,4.06,18.83c2.7,5.23,6.45,9.28,11.15,12.05,4.7,2.77,10.11,4.17,16.08,4.17,4.05,0,7.78-.61,11.11-1.82,3.32-1.21,6.27-2.92,8.76-5.08,2.48-2.16,4.53-4.7,6.07-7.54,1.54-2.84,2.56-5.92,3.02-9.16l.06-.42Z"/>
        <path class="cls-1" d="M322.48,37.18c-2.03-1.32-4.3-2.29-6.74-2.87-2.44-.58-4.92-.87-7.37-.87-3.56,0-6.87.53-9.82,1.59-2.96,1.06-5.51,2.66-7.56,4.77-2.06,2.11-3.55,4.77-4.44,7.89l-.12.41,11.87,1.69.1-.29c.57-1.66,1.68-3.12,3.32-4.34,1.63-1.22,3.89-1.84,6.72-1.84,2.66,0,4.71.65,6.11,1.94,1.39,1.28,2.09,3.13,2.09,5.5v.2c0,1.02-.36,1.74-1.1,2.21-.8.51-2.1.89-3.89,1.13-1.83.25-4.26.53-7.21.84-2.47.26-4.88.69-7.19,1.28-2.32.59-4.44,1.46-6.28,2.6-1.87,1.15-3.37,2.7-4.45,4.62-1.08,1.92-1.63,4.36-1.63,7.27,0,3.38.77,6.26,2.29,8.58,1.52,2.31,3.61,4.08,6.22,5.26,2.6,1.17,5.56,1.76,8.81,1.76,2.67,0,5.04-.38,7.04-1.13,2-.75,3.7-1.76,5.04-3.01,1.16-1.08,2.1-2.25,2.82-3.48v6.6h12.22v-34.26c0-3.41-.63-6.3-1.87-8.59-1.24-2.29-2.91-4.12-4.95-5.46ZM316.66,61.65v5.29c0,1.79-.46,3.47-1.38,4.98-.92,1.52-2.24,2.75-3.93,3.67-1.7.92-3.73,1.39-6.05,1.39s-4.39-.54-5.92-1.61c-1.51-1.06-2.25-2.59-2.25-4.67,0-1.44.38-2.63,1.13-3.54.77-.92,1.84-1.66,3.18-2.18,1.37-.54,2.95-.93,4.7-1.17.79-.11,1.73-.24,2.8-.4,1.08-.15,2.17-.33,3.28-.53,1.11-.2,2.13-.44,3.02-.7.57-.17,1.04-.35,1.42-.54Z"/>
        <path class="cls-1" d="M350.29,55.34c0-2.08.48-3.93,1.43-5.51.95-1.58,2.27-2.84,3.93-3.74,1.66-.9,3.57-1.36,5.67-1.36.99,0,2.03.07,3.1.21,1.06.14,1.84.29,2.32.46l.49.17v-11.81l-.3-.06c-.56-.11-1.27-.2-2.11-.25-.83-.06-1.59-.08-2.25-.08-2.97,0-5.64.83-7.95,2.46-2.15,1.52-3.73,3.66-4.7,6.37v-8.1h-12.32v51.38h12.68v-30.14Z"/>
        <path class="cls-1" d="M409,39.68c-2.17-2.12-4.7-3.7-7.52-4.72-2.81-1.01-5.83-1.52-8.98-1.52-4.88,0-9.2,1.13-12.82,3.37-3.63,2.24-6.48,5.39-8.49,9.38-2.01,3.98-3.02,8.65-3.02,13.9s1.01,10.03,3.01,13.97c2,3.95,4.91,7.04,8.64,9.19,3.72,2.14,8.2,3.23,13.32,3.23,3.96,0,7.53-.61,10.62-1.82,3.1-1.21,5.68-2.95,7.67-5.17,2-2.22,3.38-4.87,4.09-7.86l.1-.41-11.85-1.33-.1.27c-.5,1.37-1.26,2.53-2.25,3.45-.99.93-2.18,1.64-3.53,2.11-1.36.48-2.9.72-4.59.72-2.52,0-4.74-.54-6.61-1.62-1.86-1.07-3.33-2.64-4.37-4.66-.96-1.88-1.49-4.14-1.56-6.73h35.27v-4.03c0-4.46-.63-8.37-1.87-11.62-1.24-3.26-2.98-5.98-5.15-8.1ZM382.27,49.67c.99-1.84,2.39-3.34,4.17-4.48,1.78-1.13,3.87-1.71,6.23-1.71,2.21,0,4.17.5,5.82,1.5,1.66.99,2.97,2.37,3.9,4.09.88,1.63,1.36,3.5,1.43,5.57h-23.03c.16-1.78.65-3.45,1.47-4.97Z"/>
        <path class="cls-1" d="M263.64,137.57c-2.14-1.29-4.4-2.04-6.73-2.22v-.02c2.12-.54,4.07-1.41,5.8-2.59,1.82-1.24,3.29-2.87,4.37-4.86,1.08-1.99,1.63-4.42,1.63-7.22,0-3.39-.83-6.48-2.48-9.16-1.65-2.69-4.15-4.84-7.45-6.39-3.28-1.54-7.43-2.33-12.34-2.33h-26.22v68.26h27.7c5.2,0,9.57-.82,13.02-2.44,3.46-1.63,6.09-3.89,7.81-6.72,1.72-2.83,2.59-6.06,2.59-9.61s-.73-6.49-2.16-8.96c-1.43-2.46-3.3-4.4-5.55-5.75ZM254.34,127.16c-.94,1.38-2.23,2.45-3.85,3.2-1.63.75-3.5,1.14-5.55,1.14h-11.73v-17.88h11.99c3.49,0,6.15.82,7.91,2.44,1.75,1.61,2.63,3.69,2.63,6.19,0,1.89-.47,3.55-1.4,4.92ZM233.21,141.05h13.11c2.46,0,4.59.46,6.36,1.36,1.75.9,3.12,2.14,4.07,3.69.95,1.55,1.43,3.31,1.43,5.23,0,2.56-.95,4.67-2.82,6.3-1.89,1.64-5.04,2.46-9.37,2.46h-12.78v-19.04Z"/>
        <path class="cls-1" d="M314.25,122.32c-3.67-2.2-8.06-3.32-13.05-3.32s-9.38,1.12-13.05,3.32c-3.67,2.2-6.55,5.34-8.56,9.32-2.01,3.97-3.02,8.65-3.02,13.92s1.02,9.94,3.02,13.88c2.01,3.96,4.89,7.08,8.56,9.28,3.67,2.2,8.06,3.32,13.05,3.32s9.38-1.12,13.05-3.32c3.67-2.2,6.55-5.33,8.56-9.28,2.01-3.95,3.02-8.62,3.02-13.88s-1.02-9.95-3.02-13.92c-2.01-3.98-4.89-7.11-8.56-9.32ZM311.68,153.77c-.86,2.43-2.18,4.39-3.92,5.82-1.73,1.42-3.91,2.14-6.49,2.14s-4.87-.72-6.61-2.14c-1.75-1.43-3.08-3.39-3.94-5.82-.87-2.45-1.31-5.23-1.31-8.25s.44-5.83,1.31-8.3c.86-2.44,2.19-4.41,3.94-5.85,1.74-1.43,3.96-2.16,6.6-2.16s4.76.73,6.49,2.16c1.74,1.44,3.06,3.41,3.92,5.85.87,2.47,1.31,5.26,1.31,8.3s-.44,5.8-1.31,8.25Z"/>
        <path class="cls-1" d="M367.43,122.74c-2.03-1.32-4.3-2.29-6.74-2.87-2.44-.58-4.92-.87-7.37-.87-3.56,0-6.87.53-9.82,1.59-2.96,1.06-5.51,2.66-7.56,4.77-2.06,2.11-3.55,4.77-4.44,7.89l-.12.41,11.87,1.69.1-.29c.57-1.66,1.68-3.12,3.32-4.34,1.63-1.22,3.89-1.84,6.72-1.84,2.66,0,4.71.65,6.11,1.94,1.39,1.28,2.09,3.13,2.09,5.5v.2c0,1.02-.36,1.74-1.1,2.21-.8.51-2.1.89-3.89,1.13-1.83.25-4.26.53-7.21.84-2.47.26-4.88.69-7.19,1.28-2.32.59-4.44,1.46-6.28,2.6-1.87,1.15-3.37,2.7-4.45,4.62-1.08,1.92-1.63,4.36-1.63,7.27,0,3.38.77,6.26,2.29,8.58,1.52,2.31,3.61,4.08,6.22,5.26,2.6,1.17,5.56,1.76,8.81,1.76,2.67,0,5.04-.38,7.04-1.13,2-.75,3.7-1.76,5.04-3.01,1.16-1.08,2.1-2.25,2.82-3.48v6.6h12.22v-34.26c0-3.41-.63-6.3-1.87-8.59-1.24-2.29-2.91-4.12-4.95-5.46ZM361.61,147.22v5.29c0,1.79-.46,3.47-1.38,4.98-.92,1.52-2.24,2.75-3.93,3.67-1.7.92-3.73,1.39-6.05,1.39s-4.39-.54-5.92-1.61c-1.51-1.06-2.25-2.59-2.25-4.67,0-1.44.38-2.63,1.13-3.54.77-.92,1.84-1.66,3.18-2.18,1.37-.54,2.95-.93,4.7-1.17.79-.11,1.73-.24,2.8-.4,1.08-.15,2.17-.33,3.28-.53,1.11-.2,2.13-.44,3.02-.7.57-.17,1.04-.35,1.42-.54Z"/>
        <path class="cls-1" d="M410.78,119.02c-.83-.06-1.59-.08-2.25-.08-2.97,0-5.64.83-7.95,2.46-2.15,1.52-3.73,3.66-4.7,6.37v-8.1h-12.32v51.38h12.68v-30.14c0-2.08.48-3.93,1.43-5.51.95-1.58,2.27-2.84,3.93-3.74,1.66-.9,3.57-1.36,5.67-1.36.99,0,2.03.07,3.1.21,1.06.14,1.84.29,2.32.46l.49.17v-11.81l-.3-.06c-.56-.11-1.27-.2-2.11-.25Z"/>
        <path class="cls-1" d="M450.58,127.84c-.61-1.13-1.43-2.34-2.44-3.6-1.15-1.43-2.72-2.67-4.67-3.69-1.96-1.02-4.48-1.54-7.49-1.54-3.94,0-7.57,1.02-10.78,3.04-3.21,2.02-5.79,5.03-7.67,8.96-1.87,3.91-2.82,8.76-2.82,14.42s.93,10.41,2.77,14.33c1.85,3.94,4.4,6.98,7.58,9.06,3.19,2.07,6.85,3.13,10.89,3.13,2.95,0,5.43-.5,7.39-1.49,1.95-.99,3.54-2.2,4.73-3.6,1.11-1.31,1.99-2.58,2.61-3.77h.12v7.98h12.48v-68.26h-12.71v25.05ZM428.95,137.11c.87-2.36,2.18-4.24,3.9-5.57,1.71-1.33,3.87-2,6.43-2s4.59.65,6.29,1.94c1.7,1.29,3.02,3.13,3.9,5.47.89,2.37,1.34,5.19,1.34,8.41s-.46,6.07-1.36,8.47c-.89,2.39-2.22,4.27-3.93,5.59-1.7,1.32-3.8,1.98-6.23,1.98s-4.66-.69-6.38-2.05c-1.73-1.37-3.05-3.28-3.94-5.67-.89-2.42-1.35-5.22-1.35-8.33s.45-5.86,1.33-8.24Z"/>
        <g>
          <path class="cls-1" d="M479.18,100.52c-1.98,0-3.71.67-5.13,2-1.44,1.33-2.16,2.97-2.16,4.87s.73,3.51,2.16,4.84c1.43,1.32,3.15,2,5.13,2s3.73-.67,5.15-2c1.42-1.33,2.15-2.96,2.15-4.84s-.72-3.54-2.15-4.87c-1.42-1.32-3.15-2-5.15-2Z"/>
          <rect class="cls-1" x="472.84" y="119.67" width="12.68" height="51.38"/>
        </g>
        <path class="cls-1" d="M531.35,121.3c-2.65-1.52-5.79-2.29-9.33-2.29-3.84,0-7.1.86-9.72,2.57-2.52,1.65-4.41,3.88-5.6,6.64v-8.54h-12.15v51.38h12.68v-30.04c0-2.37.45-4.4,1.32-6.06.87-1.64,2.1-2.92,3.65-3.79,1.55-.88,3.36-1.32,5.37-1.32,2.95,0,5.3.92,6.96,2.75,1.67,1.83,2.52,4.42,2.52,7.69v30.77h12.68v-32.61c.02-4.08-.71-7.61-2.17-10.49-1.47-2.89-3.56-5.12-6.21-6.65Z"/>
        <path class="cls-1" d="M580.7,119.67v8.37h-.05c-.6-1.19-1.46-2.47-2.55-3.8-1.17-1.43-2.76-2.67-4.72-3.69-1.97-1.02-4.49-1.54-7.51-1.54-3.94,0-7.57,1.02-10.78,3.04-3.21,2.02-5.79,5.01-7.67,8.89-1.87,3.87-2.82,8.66-2.82,14.26s.95,10.24,2.83,13.93c1.88,3.71,4.46,6.53,7.66,8.4,3.2,1.86,6.81,2.8,10.75,2.8,2.94,0,5.43-.45,7.39-1.35,1.96-.9,3.57-2.02,4.77-3.35,1.12-1.24,2.01-2.47,2.63-3.66v9.21c0,3.59-1.07,6.2-3.18,7.76-2.14,1.58-4.9,2.38-8.19,2.38-2.34,0-4.29-.32-5.81-.94-1.52-.63-2.73-1.42-3.61-2.35-.89-.95-1.58-1.91-2.05-2.86l-.13-.27-11.42,2.77.12.38c.74,2.4,2.08,4.61,3.98,6.58,1.9,1.97,4.44,3.55,7.55,4.72,3.1,1.16,6.86,1.75,11.18,1.75,4.57,0,8.72-.72,12.33-2.14,3.63-1.43,6.54-3.61,8.64-6.49,2.1-2.89,3.17-6.58,3.17-10.97v-51.84h-12.52ZM558.84,137.07c.87-2.33,2.18-4.19,3.9-5.52,1.71-1.33,3.87-2,6.43-2s4.59.65,6.29,1.92c1.7,1.28,3.02,3.11,3.9,5.42.89,2.34,1.34,5.12,1.34,8.24s-.46,5.92-1.36,8.17c-.89,2.23-2.21,3.96-3.92,5.14-1.71,1.18-3.81,1.78-6.25,1.78s-4.67-.63-6.39-1.86c-1.72-1.24-3.04-3-3.93-5.24-.89-2.26-1.34-4.95-1.34-7.99s.45-5.71,1.33-8.06Z"/>
      </g>
    </g>
  </g>
</svg>