<svg width="250" height="38" viewBox="0 0 250 38" fill="none" xmlns="http://www.w3.org/2000/svg">
<g clip-path="url(#clip0_2183_263)">
<path d="M17.8603 14.9849C17.8723 14.8698 17.8586 14.7532 17.82 14.644C17.7816 14.5347 17.7194 14.4353 17.6379 14.353C17.5565 14.2706 17.4577 14.2074 17.3489 14.1678C17.2399 14.1282 17.1236 14.1133 17.0083 14.124H15.5307V8.89129H21.745C23.7321 8.89129 24.5871 9.74332 24.5871 11.7214V20.5945C24.5871 24.8471 30.9547 24.4792 30.9547 20.5945V8.89426H37.6785V22.379C37.6667 22.4941 37.6806 22.6106 37.7193 22.7196C37.758 22.8288 37.8204 22.928 37.902 23.0101C37.9837 23.0921 38.0826 23.1551 38.1915 23.1944C38.3005 23.2336 38.4168 23.2481 38.532 23.2369H40.0096V29.353H34.0664C33.6996 29.3674 33.3337 29.3068 32.9913 29.1747C32.6488 29.0426 32.3369 28.842 32.0749 28.5851C31.8128 28.3281 31.606 28.0204 31.467 27.6806C31.3282 27.3408 31.2603 26.9762 31.2675 26.6092V25.8749H31.193C30.5684 26.9627 29.6588 27.8594 28.5622 28.4684C27.4655 29.0773 26.2234 29.3755 24.9698 29.3306C21.0107 29.3306 17.8618 27.4642 17.8618 21.8293L17.8603 14.9849ZM45.0531 21.5761C46.6335 23.15 48.7009 24.1413 50.9174 24.3883C51.8886 24.3883 52.4337 24.1232 52.4337 23.4395C52.4337 21.801 42.4092 21.2752 42.4092 14.9298C42.4092 10.7174 46.4101 8.88981 50.6418 8.88981C53.9083 8.88981 58.4172 9.79842 58.4172 13.3316V15.268H52.5857V14.7005C52.5857 14.1701 51.7337 13.7889 50.7626 13.7889C49.8316 13.7889 48.9751 14.0868 48.9751 14.7005C48.9751 16.7173 59.1143 16.4446 59.1143 23.0165C59.1143 26.9681 55.5796 29.3589 50.9129 29.3589C49.2719 29.3879 47.6418 29.0864 46.1197 28.4722C44.5975 27.8581 43.2147 26.9439 42.0532 25.7841L45.0531 21.5761ZM71.2688 8.89725C77.0408 8.89725 80.3058 12.919 80.3058 18.3379C80.3058 18.9813 80.1568 20.3041 80.1568 20.3041H67.8265C68.0177 21.354 68.5868 22.2975 69.4264 22.9562C70.2659 23.6149 71.3178 23.9431 72.383 23.879C74.285 23.7584 76.101 23.043 77.574 21.8338L80.191 26.2293C77.8836 28.2499 74.9168 29.3566 71.8498 29.341C70.46 29.4245 69.0678 29.2205 67.7603 28.7418C66.4529 28.2632 65.2582 27.52 64.2507 26.5589C63.2434 25.5977 62.445 24.4393 61.9053 23.1557C61.3658 21.8722 61.0966 20.4913 61.1147 19.099C61.0468 17.7451 61.2628 16.3922 61.7489 15.1267C62.235 13.8613 62.9802 12.7116 63.9371 11.7514C64.8939 10.7912 66.041 10.0418 67.3047 9.55128C68.5684 9.06077 69.9208 8.84002 71.2747 8.90322L71.2688 8.89725ZM73.5925 16.3255C73.6035 15.6905 73.3684 15.076 72.9363 14.6107C72.5042 14.1453 71.9088 13.8652 71.2747 13.8291C70.5228 13.7837 69.7797 14.0113 69.1821 14.4699C68.5845 14.9285 68.1724 15.5874 68.0216 16.3255H73.5925ZM90.4643 1.0102H92.6986V37.2683H90.4643V1.0102ZM190.807 2.4044C191.069 2.40382 191.325 2.48121 191.544 2.62678C191.763 2.77235 191.933 2.97955 192.034 3.22209C192.135 3.46461 192.161 3.73157 192.11 3.98908C192.058 4.24659 191.931 4.48308 191.746 4.66854C191.56 4.854 191.323 4.98007 191.065 5.03078C190.808 5.0815 190.54 5.05459 190.299 4.95342C190.057 4.85225 189.849 4.6814 189.705 4.46255C189.559 4.2437 189.482 3.9867 189.483 3.72413C189.487 3.37445 189.626 3.03991 189.874 2.79292C190.121 2.54593 190.457 2.40635 190.807 2.4044ZM191.726 29.3649H189.897V8.88684H191.726V29.3649ZM249.376 23.7731C249.414 24.5806 249.246 25.3842 248.886 26.1086C248.528 26.8329 247.991 27.4542 247.327 27.914C245.585 28.9821 243.557 29.4871 241.517 29.3604C239.32 29.4594 237.131 29.0373 235.129 28.1286V26.1565C237.11 27.1528 239.299 27.6698 241.517 27.6653C243.084 27.7601 244.646 27.4188 246.03 26.6792C246.498 26.4176 246.887 26.0359 247.159 25.5734C247.428 25.1109 247.57 24.5846 247.569 24.0487C247.569 19.1556 238.725 20.1446 236.249 16.196C235.818 15.4657 235.604 14.6275 235.632 13.78C235.616 13.0744 235.782 12.3765 236.113 11.7533C236.443 11.1301 236.93 10.6026 237.524 10.2215C239.115 9.26292 240.957 8.80708 242.812 8.91363C244.928 8.90242 247.025 9.31625 248.978 10.1306L248.29 11.7974C246.564 11.0307 244.702 10.6135 242.813 10.57C241.466 10.507 240.125 10.7857 238.915 11.3803C238.484 11.5788 238.119 11.8955 237.861 12.2938C237.604 12.692 237.465 13.1552 237.46 13.6295C237.46 18.3766 246.248 17.3875 248.752 21.4271C249.18 22.1336 249.396 22.9476 249.376 23.7731ZM224.304 29.353C223.04 29.4256 221.775 29.2224 220.596 28.7573C219.419 28.2923 218.356 27.5766 217.482 26.6598C216.621 25.6864 215.961 24.5521 215.539 23.3221C215.119 22.0922 214.946 20.7909 215.03 19.4938C214.891 16.7329 215.729 14.0114 217.396 11.8063C218.16 10.8619 219.132 10.1087 220.238 9.6068C221.344 9.10487 222.552 8.86805 223.766 8.91514C224.824 8.86741 225.88 9.0654 226.85 9.49357C227.819 9.92175 228.677 10.5685 229.355 11.3833C230.81 13.3127 231.535 15.6943 231.404 18.107V19.5802H216.955C216.819 21.7334 217.507 23.8579 218.881 25.5219C219.567 26.2653 220.409 26.8464 221.348 27.2225C222.285 27.5987 223.297 27.7607 224.305 27.6966C225.317 27.7083 226.326 27.6291 227.323 27.4597C228.451 27.2135 229.554 26.8645 230.619 26.417V28.0764C229.611 28.5285 228.558 28.8663 227.476 29.0833C226.43 29.2695 225.369 29.3578 224.305 29.347L224.304 29.353ZM223.768 10.5298C222.9 10.4938 222.035 10.646 221.232 10.9758C220.428 11.3057 219.706 11.8055 219.114 12.4409C217.836 13.9986 217.115 15.9382 217.064 17.9521H229.468C229.581 16.019 229.052 14.1028 227.96 12.5033C227.472 11.8618 226.835 11.3477 226.106 11.0048C225.376 10.662 224.575 10.5005 223.769 10.5342L223.768 10.5298ZM209.492 29.3574V16.3479C209.629 14.7724 209.175 13.2026 208.221 11.9419C207.692 11.4507 207.068 11.075 206.387 10.8385C205.706 10.6021 204.983 10.5101 204.264 10.5685C203.308 10.486 202.345 10.6054 201.437 10.919C200.53 11.2325 199.698 11.7333 198.997 12.3887C197.731 14.0812 197.136 16.1822 197.326 18.2872V29.356H195.498L195.513 8.88832H197.068L197.401 12.0431H197.516C198.817 9.95282 201.135 8.91017 204.471 8.91514C209.023 8.91514 211.302 11.357 211.307 16.2407V29.3604L209.492 29.3574ZM184.319 29.3574V16.3479C184.455 14.7731 184.003 13.2038 183.052 11.9419C182.524 11.4508 181.901 11.0751 181.22 10.8386C180.539 10.6022 179.817 10.5102 179.099 10.5685C178.141 10.4846 177.177 10.6032 176.269 10.9169C175.361 11.2305 174.53 11.732 173.829 12.3887C172.564 14.0818 171.967 16.182 172.155 18.2872V29.356H170.331V0.995316H172.155V9.7716L172.059 12.3336H172.197C172.868 11.2062 173.851 10.298 175.028 9.71946C176.375 9.13802 177.834 8.86037 179.3 8.90621C183.846 8.90621 186.124 11.348 186.129 16.2317V29.3515L184.319 29.3574ZM161.54 29.3574C160.288 29.4247 159.035 29.2172 157.873 28.7494C156.708 28.2816 155.662 27.5648 154.804 26.6495C153.07 24.5218 152.201 21.8194 152.368 19.0797C152.282 17.7404 152.461 16.3972 152.895 15.1276C153.329 13.8578 154.011 12.6866 154.9 11.6812C155.788 10.748 156.866 10.0175 158.062 9.53958C159.258 9.06167 160.543 8.84765 161.829 8.91216C163.53 8.90726 165.22 9.21264 166.812 9.81332L166.317 11.4369C164.863 10.9094 163.334 10.6163 161.788 10.5685C160.743 10.4975 159.696 10.6662 158.727 11.0617C157.758 11.4572 156.892 12.0691 156.196 12.8505C154.809 14.604 154.131 16.8132 154.294 19.0424C154.161 21.3206 154.834 23.5727 156.196 25.4042C156.845 26.1703 157.662 26.7759 158.584 27.1737C159.506 27.5718 160.508 27.7511 161.511 27.6981C163.252 27.716 164.981 27.3832 166.591 26.7195V28.4175C165.002 29.1027 163.279 29.4229 161.549 29.3545L161.54 29.3574ZM147.261 29.3545L146.771 25.8287H146.621C145.802 26.9619 144.741 27.8982 143.514 28.5694C142.335 29.1312 141.042 29.4073 139.737 29.3752C138.065 29.4771 136.419 28.9333 135.136 27.856C134.58 27.317 134.145 26.6645 133.863 25.9429C133.58 25.2213 133.456 24.4472 133.498 23.6734C133.468 22.7653 133.678 21.8654 134.108 21.0647C134.537 20.2639 135.17 19.5904 135.942 19.1124C138.098 17.8915 140.55 17.2968 143.025 17.395L146.844 17.2848V16.2704C146.956 14.7399 146.544 13.2169 145.677 11.9508C145.207 11.4356 144.624 11.0363 143.974 10.7843C143.324 10.5323 142.625 10.4345 141.931 10.4985C139.907 10.5399 137.925 11.0709 136.151 12.0461L135.472 10.4598C137.508 9.4629 139.739 8.93169 142.007 8.9047C142.904 8.83431 143.805 8.95104 144.655 9.24745C145.504 9.54385 146.283 10.0135 146.941 10.6266C148.156 12.1338 148.743 14.0511 148.58 15.98L148.608 29.3574L147.261 29.3545ZM139.853 27.7159C140.783 27.7985 141.721 27.6757 142.599 27.3563C143.476 27.0368 144.273 26.5283 144.933 25.867C145.593 25.2057 146.099 24.4074 146.417 23.5288C146.734 22.6502 146.855 21.7125 146.771 20.7822V18.8086L143.266 18.9576C141.18 18.915 139.115 19.3684 137.239 20.2802C136.743 20.6324 136.328 21.0871 136.022 21.6133C135.715 22.1394 135.524 22.7252 135.463 23.3311C135.401 23.9369 135.471 24.5489 135.665 25.1259C135.86 25.7028 136.176 26.2315 136.593 26.6762C137.508 27.4235 138.674 27.796 139.853 27.7189V27.7159ZM127.951 29.3693V16.2138C128.076 14.6966 127.67 13.1831 126.802 11.9329C126.356 11.4597 125.81 11.0925 125.203 10.8587C124.598 10.6248 123.946 10.5303 123.298 10.5819C122.459 10.5147 121.615 10.6323 120.826 10.9265C120.038 11.2207 119.323 11.6842 118.733 12.2844C117.625 13.8334 117.102 15.7249 117.256 17.6229V29.3693H115.398V15.6657C115.398 12.2815 113.846 10.5879 110.743 10.5849C109.886 10.5084 109.023 10.6352 108.224 10.9551C107.425 11.275 106.713 11.779 106.146 12.4259C105.045 14.1778 104.541 16.2398 104.712 18.3021V29.3708H102.884V8.96577H104.396L104.783 12.0417H104.893C105.438 11.0582 106.258 10.2544 107.251 9.72841C108.293 9.17674 109.456 8.8946 110.634 8.90769C113.793 8.90769 115.825 10.0889 116.728 12.4691H116.795C117.413 11.3641 118.324 10.4512 119.428 9.83118C120.579 9.20458 121.873 8.88644 123.183 8.90769C124.082 8.83833 124.984 8.95887 125.834 9.26143C126.682 9.56399 127.458 10.0418 128.11 10.6638C129.341 12.2471 129.926 14.2374 129.749 16.2347V29.3545L127.951 29.3693ZM3.08271 14.1494H0.625V8.90173H3.07378V8.43997C3.07378 1.86669 9.0155 0.972974 12.2418 0.972974C12.9174 0.968678 13.5925 1.00798 14.2632 1.09064V6.76724C13.9009 6.71667 13.5356 6.69178 13.1698 6.69276C11.8501 6.69276 9.79303 6.92065 9.79303 8.63807V8.90322H13.4856V14.1509H9.79303V29.3708H3.07378L3.08271 14.1494Z" fill="white"/>
</g>
<defs>
<clipPath id="clip0_2183_263">
<rect width="250" height="37.3134" fill="white"/>
</clipPath>
</defs>
</svg>
