<svg width="400" height="164" viewBox="0 0 400 164" fill="none" xmlns="http://www.w3.org/2000/svg">
<g clip-path="url(#clip0_5175_1838)">
<path d="M44.2179 27.6858V34.1112H43.9755C41.5519 30.7095 36.0987 25.6699 27.01 25.6699C11.1351 25.6699 0.955796 38.7728 0.955796 57.4193C0.955796 76.0658 11.1351 89.1687 27.01 89.1687C36.0987 89.1687 41.5519 84.1291 43.9755 80.7274H44.2179V84.5071C44.2179 95.2162 41.3095 100.004 32.5844 100.004C25.7982 100.004 22.7686 97.106 21.5568 93.5783H2.16762C4.3489 103.909 13.4376 114.493 33.0691 114.493C51.8524 114.493 63.607 107.185 63.607 85.8929L63.607 27.6858L44.2179 27.6858ZM32.0996 74.0499C24.2228 74.0499 20.345 67.8764 20.345 57.4193C20.345 46.9622 24.2228 40.7887 32.0996 40.7887C39.9765 40.7887 43.8543 46.9622 43.8543 57.4193C43.8543 67.8764 39.9765 74.0499 32.0996 74.0499ZM16.1046 142.613C11.4386 141.498 7.84447 141.236 7.84447 137.827C7.84447 135.467 9.98831 133.894 13.9607 133.894C19.1312 133.894 20.3923 136.582 20.8336 139.204H27.2652C26.8238 133.369 22.6622 128.453 13.8977 128.453C5.82673 128.453 1.16072 132.845 1.16072 138.352C1.16072 145.956 8.09668 147.005 13.2041 148.251C17.9331 149.431 21.7794 149.758 21.7794 153.954C21.7794 156.052 19.8248 158.412 15.2218 158.412C8.41195 158.412 6.89865 155.331 6.58338 151.725H0.151855C0.467126 158.805 4.94397 163.853 15.3479 163.853C23.1666 163.853 28.4632 159.854 28.4632 153.43C28.4632 145.432 22.0317 144.055 16.1046 142.613ZM47.8913 163.853C37.8026 163.853 31.6863 156.576 31.6863 146.153C31.6863 135.729 37.8026 128.453 47.8913 128.453C57.9799 128.453 64.0962 135.729 64.0962 146.153C64.0962 156.576 57.9799 163.853 47.8913 163.853ZM47.8913 158.215C54.1967 158.215 57.4755 153.036 57.4755 146.153C57.4755 139.204 54.1967 134.091 47.8913 134.091C41.5858 134.091 38.307 139.204 38.307 146.153C38.307 153.036 41.5858 158.215 47.8913 158.215ZM68.7982 115.997L68.7982 162.869H75.4819L75.4819 115.997H68.7982ZM103.098 129.371V149.758C103.098 154.741 99.8189 157.953 94.711 157.953C90.1711 157.953 88.3425 155.068 88.3425 150.545V129.371H81.6588V152.512C81.6588 160.182 86.3878 163.787 92.378 163.787C97.9267 163.787 101.269 161.165 102.972 158.543H103.098V162.869H109.718L109.718 129.371H103.098ZM131.409 135.008V129.371H125.357V118.816H118.673V129.371H114.007V135.008H118.673V153.757C118.673 160.837 121.574 163.328 126.87 163.328C128.635 163.328 130.086 163.132 131.409 162.804V157.166C127.122 157.428 125.357 156.969 125.357 153.167V135.008H131.409ZM139.942 123.733C141.897 123.733 143.725 122.422 143.725 120.062C143.725 117.702 141.897 116.456 139.942 116.456C138.113 116.456 136.222 117.702 136.222 120.062C136.222 122.422 138.113 123.733 139.942 123.733ZM136.663 129.371V162.869H143.284V129.371H136.663ZM164.517 163.853C154.429 163.853 148.312 156.576 148.312 146.153C148.312 135.729 154.429 128.453 164.517 128.453C174.606 128.453 180.722 135.729 180.722 146.153C180.722 156.576 174.606 163.853 164.517 163.853ZM164.517 158.215C170.823 158.215 174.102 153.036 174.102 146.153C174.102 139.204 170.823 134.091 164.517 134.091C158.212 134.091 154.933 139.204 154.933 146.153C154.933 153.036 158.212 158.215 164.517 158.215ZM202.638 128.453C197.089 128.453 193.747 131.075 192.045 133.697H191.918V129.371H185.298V162.869H191.918V142.482C191.918 137.499 195.197 134.287 200.305 134.287C204.845 134.287 206.673 137.172 206.673 141.695V162.869H213.357V139.728C213.357 132.058 208.628 128.453 202.638 128.453ZM233.346 142.613C228.68 141.498 225.086 141.236 225.086 137.827C225.086 135.467 227.23 133.894 231.202 133.894C236.373 133.894 237.634 136.582 238.075 139.204H244.507C244.065 133.369 239.904 128.453 231.139 128.453C223.068 128.453 218.402 132.845 218.402 138.352C218.402 145.956 225.338 147.005 230.445 148.251C235.175 149.431 239.021 149.758 239.021 153.954C239.021 156.052 237.066 158.412 232.463 158.412C225.653 158.412 224.14 155.331 223.825 151.725L217.393 151.725C217.709 158.805 222.185 163.853 232.589 163.853C240.408 163.853 245.705 159.854 245.705 153.43C245.705 145.432 239.273 144.055 233.346 142.613Z" fill="white"/>
<path d="M107.871 26.5466C101.085 26.5466 95.7529 31.0822 92.7233 38.2636H92.481V27.6805L73.0918 27.6805L73.0918 92.1871H92.481V62.2016C92.481 48.4688 103.024 42.7992 112.961 44.6891H113.203V27.0505C111.022 26.5466 109.568 26.5466 107.871 26.5466ZM129.177 19.9951C134.63 19.9951 138.871 16.9714 138.871 11.0499C138.871 5.25434 134.63 2.10461 129.177 2.10461C123.724 2.10461 119.482 5.25434 119.482 11.0499C119.482 16.9714 123.724 19.9951 129.177 19.9951ZM119.482 27.6805L119.482 92.1871H138.871V27.6805L119.482 27.6805ZM183.742 42.7992V27.6805H172.957V9.66399L153.568 9.66399V27.6805L144.964 27.6805V42.7992H153.568V71.0209C153.568 85.5097 157.567 93.321 171.745 93.321C177.199 93.321 180.228 92.6911 183.742 91.9351V76.8164C175.502 76.8164 172.957 76.8164 172.957 69.509V42.7992L183.742 42.7992ZM226.242 17.3493V2.23059C222.728 1.47467 219.698 0.970703 214.245 0.970703C200.066 0.970703 196.067 8.78205 196.067 23.2709V27.6805L186.858 27.6805V42.7992H196.067V92.1871L215.457 92.1871L215.457 42.7992H226.242V27.6805L215.457 27.6805V24.9087C215.457 17.3493 218.001 17.3493 226.242 17.3493ZM260.656 79.0842C253.748 79.0842 247.326 74.2966 247.326 65.2254H291.921C291.921 41.7913 281.135 25.6647 259.929 25.6647C240.176 25.6647 227.936 40.2794 227.936 59.9338C227.936 80.0921 240.418 94.203 261.019 94.203C277.864 94.203 287.558 85.6357 290.951 72.6587H271.683C270.471 75.8085 267.321 79.0842 260.656 79.0842ZM259.929 39.5235C267.321 39.5235 272.532 44.0591 272.532 53.0044L247.326 53.0044C247.326 44.0591 252.536 39.5235 259.929 39.5235ZM335.131 45.571C335.131 50.9886 327.254 52.2484 319.256 53.8863C304.714 56.9101 295.625 62.8316 295.625 75.6825C295.625 86.5176 302.896 94.203 315.984 94.203C324.224 94.203 331.495 90.1713 335.494 85.3837H335.736C335.736 89.9193 338.16 94.203 346.885 94.203C350.763 94.203 354.277 93.699 358.155 92.1871V87.3995C355.732 87.3995 354.52 86.0136 354.52 82.6119V53.0044C354.52 32.7201 344.825 25.6647 327.375 25.6647C307.137 25.6647 298.655 36.1218 298.049 48.4688L316.226 48.4688C316.832 42.2953 320.225 39.5235 327.254 39.5235C332.586 39.5235 335.131 41.7913 335.131 45.571ZM322.77 80.3441C318.044 80.3441 315.014 78.0763 315.014 72.7847C315.014 68.7531 317.559 65.4773 325.194 63.7135C329.677 62.7056 332.707 61.8237 335.131 60.8157V68.6271C335.131 74.8006 331.132 80.3441 322.77 80.3441ZM399.717 42.7992V27.6805L388.932 27.6805V9.66399L369.542 9.66399V27.6805H360.938V42.7992H369.542V71.0209C369.542 85.5097 373.541 93.321 387.72 93.321C393.173 93.321 396.202 92.6911 399.717 91.9351V76.8164C391.476 76.8164 388.932 76.8164 388.932 69.509V42.7992H399.717Z" fill="white"/>
</g>
<defs>
<clipPath id="clip0_5175_1838">
<rect width="400" height="163.889" fill="white"/>
</clipPath>
</defs>
</svg>
