<svg width="214" height="100" viewBox="0 0 214 100" fill="none" xmlns="http://www.w3.org/2000/svg">
<path d="M41.2177 20.1928C33.5764 20.2314 25.9866 20.2442 18.3325 20.2057C17.2519 20.2057 16.1713 20.1928 15.0907 20.1799C13.5856 20.1542 6.26591 19.8197 5.46834 20.5916C4.74795 21.2862 5.13387 30.3812 5.14673 31.912C5.1596 33.1212 4.73508 36.0414 5.71276 36.736C7.488 38.0096 20.9953 36.1186 23.7097 37.3149C24.816 37.9581 24.43 41.8688 24.4043 43.0395C24.3014 47.4776 25.3048 54.9516 21.5228 58.039C18.474 59.8657 15.0521 59.7757 11.6431 59.2997C9.73923 59.0296 6.54892 57.8332 5.54552 59.9686C4.77367 61.6024 5.01809 71.7007 5.06955 74.0549C5.17246 78.2228 4.73508 78.7245 8.8516 79.0075C21.9473 79.9466 35.0172 81.902 41.7066 67.7772C44.5367 61.5895 44.6267 52.4946 44.5753 45.7409C44.5367 38.7043 44.5238 31.7576 44.5624 24.7081C44.5881 21.0032 44.974 20.1799 41.2177 20.1928Z" fill="white"/>
<path d="M69.2085 41.7416C67.3303 40.9826 50.5813 40.7253 49.7065 41.8059C49.1791 42.4491 49.3077 54.1812 49.2691 56.3552C49.2177 59.0181 48.5359 78.1085 50.1825 79.099C51.5847 79.948 68.2566 79.7293 69.0284 79.0861L69.2471 78.8417C70.4177 76.2046 69.9289 64.2409 69.9675 60.1502C69.9804 58.2077 70.4306 42.2304 69.2085 41.7416Z" fill="white"/>
<path d="M59.3153 37.9444C63.0459 38.0473 65.9532 36.7352 67.7285 34.3425C71.0989 29.7757 69.3879 23.3951 64.1394 21.2211C62.2226 20.4364 60.0357 20.1534 57.9131 20.3978C53.5007 21.2725 49.5 24.3471 49.5 29.1582C49.8087 34.7413 53.9767 37.8158 59.3153 37.9444Z" fill="white"/>
<path d="M95.5669 20.629C94.7822 20.7062 94.0618 20.8091 93.29 20.9506L92.4924 21.1179C89.3664 21.8382 86.8065 23.0603 84.7225 25.556C80.979 30.4958 81.2878 35.4228 80.1815 41.0958C80.0528 41.7776 78.9722 41.6104 78.239 41.649C76.5666 41.739 75.4475 41.6104 73.7623 42.0092C72.9776 44.5563 73.222 52.3391 73.3506 55.3364C73.3763 56.0825 73.4535 57.3561 73.8652 57.9736C74.3026 58.3723 78.8822 58.5396 79.8084 58.6296C80.5802 65.4991 79.6798 71.5581 79.9113 78.1574C79.9756 79.8683 81.9824 79.5724 83.5261 79.6239C85.1599 79.6753 98.4871 79.7139 99.4519 79.4181C100.828 79.0064 100.224 76.5365 100.172 75.2243C100.031 71.661 99.7092 62.6818 100.275 59.5044C100.764 58.0893 103.247 58.3852 104.405 58.3852C106.09 58.3852 107.762 58.4753 109.447 58.4624C109.499 58.4624 109.55 58.4624 109.602 58.4624C109.537 57.742 109.859 56.9187 110.502 55.6709C110.952 54.8218 111.403 53.96 111.84 53.0981C112.458 51.8888 111.814 51.3485 110.901 51.1427C110.785 51.117 110.682 51.0913 110.567 51.0527C109.589 51.0913 108.624 50.9112 107.672 50.6667C107.749 50.7182 107.826 50.7697 107.904 50.8211C106.36 50.7825 105.099 50.551 103.864 50.1779C101.459 49.4447 99.5291 47.9653 97.7796 46.2286C97.0463 45.5082 96.3131 44.8007 95.4383 44.2475C93.8432 43.2184 92.2094 43.1284 90.5757 44.1318C89.3278 44.9036 87.99 45.2638 86.5363 45.2252C85.6487 45.2124 84.8254 44.9808 84.3752 44.1575C83.9121 43.3342 84.3237 42.5881 84.7611 41.8805C85.1084 41.3017 85.5715 40.8128 86.1247 40.4398C87.1409 39.7708 87.8613 38.8703 88.4274 37.8155C89.3021 36.2075 90.6014 35.1655 92.4538 34.9339C92.9427 34.8696 93.2771 34.5866 93.6502 34.3293C95.4126 33.1072 97.1492 31.8594 99.0917 30.9332C99.6835 30.6502 100.314 30.4058 100.944 30.2257C101.729 29.9941 101.909 30.1999 101.639 30.9718C100.957 32.9657 99.9793 34.7796 98.1526 36.2718C99.9279 36.4776 101.472 37.1466 103.157 36.8764C103.697 36.7864 104.07 36.4776 104.456 36.1174C106.823 33.8019 109.344 31.6664 112.136 29.8783C112.175 26.5594 112.11 22.7773 111.596 21.6067C110.348 20.0887 97.8568 20.4103 95.5669 20.629Z" fill="white"/>
<path d="M152.641 21.5946C151.367 20.0895 138.889 20.4111 136.599 20.6298C135.815 20.707 135.094 20.8099 134.322 20.9514L133.525 21.1186C130.412 21.839 127.839 23.0611 125.768 25.5439C125.768 25.5439 125.768 25.5439 125.755 25.5568C124.61 27.0619 123.851 28.567 123.311 30.0849C122.783 31.5643 122.462 33.0565 122.217 34.5874C121.883 36.6714 121.664 38.8197 121.227 41.0966C121.098 41.7784 120.017 41.6112 119.284 41.6498C118.268 41.7012 117.457 41.6755 116.608 41.7398C116.055 41.7784 115.489 41.8556 114.833 42.01C114.82 42.01 114.82 42.01 114.807 42.01C114.705 42.3444 114.615 42.7818 114.55 43.2835C114.319 44.943 114.254 47.3614 114.267 49.677C114.28 51.9153 114.344 54.0636 114.396 55.3372C114.409 55.736 114.447 56.2763 114.524 56.7908C114.602 57.2539 114.717 57.6913 114.91 57.9743C115.232 58.2702 117.728 58.4246 119.426 58.5404C120.069 58.579 120.596 58.6175 120.854 58.6433C121.407 63.5831 121.098 68.0984 120.969 72.7038C120.918 74.5047 120.892 76.3186 120.969 78.1839C121.034 79.8948 123.041 79.5989 124.584 79.6504C126.218 79.7018 139.545 79.7404 140.51 79.4446C141.886 79.0329 141.282 76.563 141.23 75.2509C141.089 71.6875 140.767 62.7083 141.333 59.5309C141.822 58.1158 144.305 58.4117 145.463 58.4117C147.148 58.4117 148.82 58.5018 150.505 58.4889C151.316 58.476 152.062 58.5275 152.821 58.193C153.31 55.0671 153.143 51.4265 153.091 48.0175C153.078 47.1042 153.065 46.2165 153.078 45.3546C153.091 44.7243 153.297 41.9842 152.589 41.7527C151.882 41.534 148.923 41.6884 147.971 41.7141C146.235 41.7141 144.511 41.727 142.774 41.7012C142.44 41.7012 142.105 41.6884 141.771 41.6884C141.964 41.2639 142.144 40.8779 142.337 40.5306C143.983 37.4432 145.514 37.2374 147.662 37.4432C148.897 37.559 150.325 37.8163 152.101 37.7519C153.709 37.6876 153.053 36.2597 153.091 34.8447C153.13 32.2461 153.49 23.4856 152.641 21.5946Z" fill="white"/>
<path d="M208.045 21.054C206.991 19.7032 190.962 20.1921 188.814 20.9253C188.067 21.6972 188.312 26.8814 188.338 28.0778C188.428 31.6283 186.742 35.6676 182.613 35.1788C176.644 34.4713 177.93 26.0067 177.66 22.0702C177.57 20.861 177.815 20.861 177.081 20.6295L176.335 20.5008C173.827 20.2049 159.985 19.8062 158.506 21.0025C156.91 22.2889 157.528 31.8598 157.515 34.4198C157.502 37.4043 157.669 40.0671 158.004 42.4084C158.313 44.6082 158.789 46.5378 159.406 48.1973C162.905 57.5366 171.383 58.5915 185.662 53.7803C187.347 53.1757 188.17 52.4038 187.566 54.2305C184.375 60.8942 174.534 60.4954 168.257 60.0966C164.539 59.6978 159.419 58.6687 155.843 59.0031C154.595 62.0648 154.865 66.2456 154.942 69.526C155.122 77.6818 152.627 78.711 160.795 79.3027C175.718 80.3833 194.306 81.6954 203.376 67.2619C208.599 58.5658 208.611 49.265 208.534 39.5783C208.521 36.954 209.087 22.3918 208.045 21.054Z" fill="white"/>
</svg>
