<?xml version="1.0" encoding="utf-8"?>
<!-- Generator: Adobe Illustrator 27.8.1, SVG Export Plug-In . SVG Version: 6.00 Build 0)  -->
<svg version="1.1" id="Layer_1" xmlns="http://www.w3.org/2000/svg" xmlns:xlink="http://www.w3.org/1999/xlink" x="0px" y="0px"
	 viewBox="0 0 1920 1080" width="1920" height="1080" xml:space="preserve">
<style type="text/css">
	.st0{fill:#231F20;}
	.st1{fill:#FFFFFF;}
	.st2{fill:#002147;}
	.st3{fill:#FF8C00;}
</style>
<g>
	<path class="st3" d="M449.7,286.3c-59.4,0.3-118.4,0.4-177.9,0.1c-8.4,0-16.8-0.1-25.2-0.2c-11.7-0.2-68.6-2.8-74.8,3.2
		c-5.6,5.4-2.6,76.1-2.5,88c0.1,9.4-3.2,32.1,4.4,37.5c13.8,9.9,118.8-4.8,139.9,4.5c8.6,5,5.6,35.4,5.4,44.5
		c-0.8,34.5,7,92.6-22.4,116.6c-23.7,14.2-50.3,13.5-76.8,9.8c-14.8-2.1-39.6-11.4-47.4,5.2c-6,12.7-4.1,91.2-3.7,109.5
		c0.8,32.4-2.6,36.3,29.4,38.5c101.8,7.3,203.4,22.5,255.4-87.3c22-48.1,22.7-118.8,22.3-171.3c-0.3-54.7-0.4-108.7-0.1-163.5
		C475.9,292.6,478.9,286.2,449.7,286.3z"/>
	<path class="st3" d="M667.3,453.8c-14.6-5.9-144.8-7.9-151.6,0.5c-4.1,5-3.1,96.2-3.4,113.1c-0.4,20.7-5.7,169.1,7.1,176.8
		c10.9,6.6,140.5,4.9,146.5-0.1l1.7-1.9c9.1-20.5,5.3-113.5,5.6-145.3C673.3,581.8,676.8,457.6,667.3,453.8z"/>
	<path class="st3" d="M590.4,424.3c29,0.8,51.6-9.4,65.4-28c26.2-35.5,12.9-85.1-27.9-102c-14.9-6.1-31.9-8.3-48.4-6.4
		c-34.3,6.8-65.4,30.7-65.4,68.1C516.5,399.4,548.9,423.3,590.4,424.3z"/>
	<path class="st3" d="M872.2,289.7c-6.1,0.6-11.7,1.4-17.7,2.5l-6.2,1.3c-24.3,5.6-44.2,15.1-60.4,34.5
		c-29.1,38.4-26.7,76.7-35.3,120.8c-1,5.3-9.4,4-15.1,4.3c-13,0.7-21.7-0.3-34.8,2.8c-6.1,19.8-4.2,80.3-3.2,103.6
		c0.2,5.8,0.8,15.7,4,20.5c3.4,3.1,39,4.4,46.2,5.1c6,53.4-1,100.5,0.8,151.8c0.5,13.3,16.1,11,28.1,11.4
		c12.7,0.4,116.3,0.7,123.8-1.6c10.7-3.2,6-22.4,5.6-32.6c-1.1-27.7-3.6-97.5,0.8-122.2c3.8-11,23.1-8.7,32.1-8.7
		c13.1,0,26.1,0.7,39.2,0.6c0.4,0,0.8,0,1.2,0c-0.5-5.6,2-12,7-21.7c3.5-6.6,7-13.3,10.4-20c4.8-9.4-0.2-13.6-7.3-15.2
		c-0.9-0.2-1.7-0.4-2.6-0.7c-7.6,0.3-15.1-1.1-22.5-3c0.6,0.4,1.2,0.8,1.8,1.2c-12-0.3-21.8-2.1-31.4-5
		c-18.7-5.7-33.7-17.2-47.3-30.7c-5.7-5.6-11.4-11.1-18.2-15.4c-12.4-8-25.1-8.7-37.8-0.9c-9.7,6-20.1,8.8-31.4,8.5
		c-6.9-0.1-13.3-1.9-16.8-8.3c-3.6-6.4-0.4-12.2,3-17.7c2.7-4.5,6.3-8.3,10.6-11.2c7.9-5.2,13.5-12.2,17.9-20.4
		c6.8-12.5,16.9-20.6,31.3-22.4c3.8-0.5,6.4-2.7,9.3-4.7c13.7-9.5,27.2-19.2,42.3-26.4c4.6-2.2,9.5-4.1,14.4-5.5
		c6.1-1.8,7.5-0.2,5.4,5.8c-5.3,15.5-12.9,29.6-27.1,41.2c13.8,1.6,25.8,6.8,38.9,4.7c4.2-0.7,7.1-3.1,10.1-5.9
		c18.4-18,38-34.6,59.7-48.5c0.3-25.8-0.2-55.2-4.2-64.3C987.1,285.5,890,288,872.2,289.7z"/>
	<path class="st3" d="M1315.9,297.2c-9.9-11.7-106.9-9.2-124.7-7.5c-6.1,0.6-11.7,1.4-17.7,2.5l-6.2,1.3
		c-24.2,5.6-44.2,15.1-60.3,34.4c0,0,0,0-0.1,0.1c-8.9,11.7-14.8,23.4-19,35.2c-4.1,11.5-6.6,23.1-8.5,35
		c-2.6,16.2-4.3,32.9-7.7,50.6c-1,5.3-9.4,4-15.1,4.3c-7.9,0.4-14.2,0.2-20.8,0.7c-4.3,0.3-8.7,0.9-13.8,2.1c-0.1,0-0.1,0-0.2,0
		c-0.8,2.6-1.5,6-2,9.9c-1.8,12.9-2.3,31.7-2.2,49.7c0.1,17.4,0.6,34.1,1,44c0.1,3.1,0.4,7.3,1,11.3c0.6,3.6,1.5,7,3,9.2
		c2.5,2.3,21.9,3.5,35.1,4.4c5,0.3,9.1,0.6,11.1,0.8c4.3,38.4,1.9,73.5,0.9,109.3c-0.4,14-0.6,28.1,0,42.6
		c0.5,13.3,16.1,11,28.1,11.4c12.7,0.4,116.3,0.7,123.8-1.6c10.7-3.2,6-22.4,5.6-32.6c-1.1-27.7-3.6-97.5,0.8-122.2
		c3.8-11,23.1-8.7,32.1-8.7c13.1,0,26.1,0.7,39.2,0.6c6.3-0.1,12.1,0.3,18-2.3c3.8-24.3,2.5-52.6,2.1-79.1c-0.1-7.1-0.2-14-0.1-20.7
		c0.1-4.9,1.7-26.2-3.8-28c-5.5-1.7-28.5-0.5-35.9-0.3c-13.5,0-26.9,0.1-40.4-0.1c-2.6,0-5.2-0.1-7.8-0.1c1.5-3.3,2.9-6.3,4.4-9
		c12.8-24,24.7-25.6,41.4-24c9.6,0.9,20.7,2.9,34.5,2.4c12.5-0.5,7.4-11.6,7.7-22.6C1319.7,380,1322.5,311.9,1315.9,297.2z"/>
	<path class="st3" d="M1746.6,293c-8.2-10.5-132.8-6.7-149.5-1c-5.8,6-3.9,46.3-3.7,55.6c0.7,27.6-12.4,59-44.5,55.2
		c-46.4-5.5-36.4-71.3-38.5-101.9c-0.7-9.4,1.2-9.4-4.5-11.2l-5.8-1c-19.5-2.3-127.1-5.4-138.6,3.9c-12.4,10-7.6,84.4-7.7,104.3
		c-0.1,23.2,1.2,43.9,3.8,62.1c2.4,17.1,6.1,32.1,10.9,45c27.2,72.6,93.1,80.8,204.1,43.4c13.1-4.7,19.5-10.7,14.8,3.5
		c-24.8,51.8-101.3,48.7-150.1,45.6c-28.9-3.1-68.7-11.1-96.5-8.5c-9.7,23.8-7.6,56.3-7,81.8c1.4,63.4-18,71.4,45.5,76
		c116,8.4,260.5,18.6,331-93.6c40.6-67.6,40.7-139.9,40.1-215.2C1750.3,416.6,1754.7,303.4,1746.6,293z"/>
</g>
</svg>
