<svg width="365" height="114" viewBox="0 0 365 114" fill="none" xmlns="http://www.w3.org/2000/svg">
<g clip-path="url(#clip0_2172_1269)">
<path fill-rule="evenodd" clip-rule="evenodd" d="M364.519 51.7188V57.5144L337.131 57.5601C344.09 61.9362 351.044 69.2951 348.264 75.0645C345.706 79.9246 331.544 80.3563 325.265 79.5975C334.534 88.1927 347.25 99.5286 355.125 97.8998C358.259 97.1476 363.407 94.0994 364.499 92.8697C366.841 96.8075 360.489 102.276 353.438 103.512C332.094 105.9 321.464 81.1739 302.462 75.0645C304.353 73.56 308.284 71.1005 310.756 71.3556C317.984 72.1078 338.014 76.6147 335.266 68.8568C334.076 64.8994 323.996 57.5405 316.971 57.534L292.395 57.5078L292.448 87.532C292.448 87.8133 308.225 92.5688 307.898 101.936C307.662 106.907 302.063 111.041 296.326 112.33C279.529 116.353 266.387 110.047 262.822 108.595C260.317 107.574 254.679 104.134 252.428 100.876L256.438 99.2343C256.549 99.1885 258.911 102.734 262.901 104.592C266.983 106.495 278.181 111.165 290.538 107.803C293.331 107.149 298.256 102.577 297.118 99.0119C295.129 95.1395 288.497 94.2564 285.481 94.8451C281.262 96.7028 281.883 98.083 281.085 99.1623V99.0119L271.928 92.8697C273.642 90.142 281.053 88.3039 281.053 88.1469L281.04 82.7438C271.038 87.8198 256.144 92.8435 246.737 87.3358C233.21 78.2239 243.846 60.3009 244.971 57.5601H229.796L229.75 99.5352C229.966 101.314 231.804 102.93 233.956 103.937H218.296L218.329 74.9205L196.37 74.9533C193.682 74.9533 190.804 77.2623 190.326 78.5967C188.004 85.0791 190.326 96.6636 198.437 103.879C189.816 105.291 179.409 90.9596 178.794 84.0979C178.231 79.8068 179.507 73.5142 182.614 70.5837C184.707 68.7718 187.899 66.6851 192.504 66.5543H218.309L218.322 57.5209L135.563 57.4882L135.655 99.4109C135.655 101.412 137.924 102.982 139.749 103.931H139.102L123.887 103.964V57.5144L114.801 57.5601L114.736 99.1361C114.736 101.386 117.365 103.296 118.948 103.957L103.171 103.977L103.217 57.4817L58.756 57.5144L58.8083 71.0939C71.3805 64.677 89.1726 63.8593 95.9297 68.8437C100.352 71.6041 100.024 77.2427 98.3957 80.5722C95.1578 87.4404 83.6715 93.1182 75.737 95.3161L68.3061 87.9441C77.176 86.8386 89.6174 82.5084 92.5283 76.8829C93.1955 74.9729 91.5471 73.246 89.4735 72.5788C78.6282 71.0808 67.5343 76.2419 58.756 81.8084L58.769 99.352C58.769 101.445 60.594 102.989 62.9685 103.95H47.3023L47.2892 86.9498C36.4504 92.7912 15.996 94.7731 7.55129 90.5868C2.81545 88.1338 0.310165 84.7651 0.159717 81.1739C0.748426 72.8143 7.85873 67.8757 16.0222 65.0498C23.1194 62.8978 33.8012 62.0736 42.1413 66.43C43.7439 67.1692 43.6719 68.4578 44.4307 69.4979C29.4448 66.1619 11.319 73.3179 9.31742 81.7888C9.91267 87.8787 25.3892 85.3538 32.7939 83.0186C36.4831 81.1216 40.2574 80.3759 47.2434 75.6205L47.2107 57.4686L-0.0234375 57.5405L-0.0103551 51.6861L123.933 51.7188C124.587 44.1964 136.518 39.2905 153.97 39.284L201.08 39.2578C217.727 39.2513 229.384 45.1188 229.913 51.7319L364.486 51.6861L364.519 51.7188ZM281.295 57.5144L259.931 57.5994C259.892 57.5994 252.428 64.0687 250.78 72.1405C249.969 76.5297 250.983 82.0505 256.726 83.8231C262.979 85.236 277.743 75.9606 281.059 69.2493L281.288 57.5078L281.295 57.5144ZM176.374 74.9271L176.459 66.5739L155.546 66.6132C146.86 66.4104 142.3 71.9377 142.412 78.25C142.542 83.3456 146.434 89.1673 155.331 89.3178C172.953 87.4143 167.36 74.9467 167.713 74.9467L176.367 74.9271H176.374ZM155.134 84.4315C162.088 83.9867 159.72 76.7848 157.908 74.8813L152.799 74.8682C148.672 75.712 148.861 80.389 149.823 81.9262C151.026 83.4438 152.511 84.4446 155.134 84.4315ZM217.708 51.7581C215.595 48.0623 207.497 43.7778 196.442 43.7778L158.287 43.7909C146.984 43.7909 138.67 47.4801 135.674 51.7581H217.708Z" fill="white"/>
<path fill-rule="evenodd" clip-rule="evenodd" d="M176.796 0L175.383 4.02939H178.209L176.796 0Z" fill="white"/>
<path fill-rule="evenodd" clip-rule="evenodd" d="M173.666 5.51562L163.664 10.657H189.934L179.932 5.51562H173.666Z" fill="white"/>
<path fill-rule="evenodd" clip-rule="evenodd" d="M165.047 11.457L168.945 14.1128H184.644L188.543 11.457H165.047Z" fill="white"/>
<path fill-rule="evenodd" clip-rule="evenodd" d="M168.947 14.9062L154.688 20.2177H198.906L184.646 14.9062H168.947Z" fill="white"/>
<path d="M164.153 20.7969H154.688V21.0389H164.153V20.7969Z" fill="white"/>
<path d="M164.214 21.0968H154.625V20.7305H164.214V21.0968ZM154.749 20.979H164.097V20.8548H154.749V20.979Z" fill="white"/>
<path d="M198.897 20.7969H189.445V21.0389H198.897V20.7969Z" fill="white"/>
<path d="M198.96 21.0968H189.391V20.7305H198.96V21.0968ZM189.515 20.979H198.843V20.8548H189.515V20.979Z" fill="white"/>
<path fill-rule="evenodd" clip-rule="evenodd" d="M162.516 26.4531L142.297 34.0213H211.294L191.075 26.4531H162.516Z" fill="white"/>
<path d="M211.301 35.0625H142.305V35.3045H211.301V35.0625Z" fill="white"/>
<path d="M211.357 35.3624H142.242V34.9961H211.357V35.3624ZM142.366 35.2447H211.239V35.1204H142.366V35.2447Z" fill="white"/>
<path fill-rule="evenodd" clip-rule="evenodd" d="M168.828 15.2228H184.776V13.8164H168.828V15.2228ZM169.07 14.1369H184.534V14.8957H169.07V14.1369Z" fill="white"/>
<path d="M184.831 15.2806H168.766V13.75H184.831V15.2806ZM168.89 15.1564H184.713V13.8677H168.89V15.1564ZM184.595 14.9536H169.008V14.0771H184.595V14.9536ZM169.125 14.8358H184.471V14.2013H169.125V14.8358Z" fill="white"/>
<path fill-rule="evenodd" clip-rule="evenodd" d="M173.641 4.07759L174.406 4.84292H179.194L179.94 4.09722L179.763 3.92714L179.089 4.60743H174.511L173.817 3.91406L173.641 4.07759Z" fill="white"/>
<path d="M179.213 4.89961H174.379L173.555 4.07542L173.81 3.82031L174.529 4.53985H179.056L179.762 3.83339L180.017 4.09504L179.213 4.89961ZM174.431 4.78187H179.167L179.854 4.09504L179.769 4.01001L179.115 4.66413H174.49L173.816 3.99693L173.731 4.08196L174.438 4.78187H174.431Z" fill="white"/>
<path fill-rule="evenodd" clip-rule="evenodd" d="M158.805 23.5625L162.487 25.5707H191.112L194.788 23.5625H158.805ZM159.753 23.8111H193.839L191.046 25.3286H162.553L159.753 23.8111Z" fill="white"/>
<path d="M191.118 25.6298H162.448L158.562 23.5039H195.017L191.118 25.6298ZM162.494 25.5121H191.092L194.546 23.6282H159.033L162.494 25.5121ZM191.059 25.3878H162.513L159.511 23.7525H194.075L191.059 25.3878ZM162.559 25.2635H191.027L193.597 23.8702H159.982L162.559 25.2635Z" fill="white"/>
<path fill-rule="evenodd" clip-rule="evenodd" d="M162.391 26.571H191.205V25.3281H162.391V26.571ZM162.633 25.5701H190.956V26.3289H162.633V25.5701Z" fill="white"/>
<path d="M191.268 26.6327H162.336V25.2656H191.268V26.6327ZM162.454 26.515H191.143V25.3834H162.454V26.515ZM191.019 26.3907H162.578V25.5142H191.019V26.3907ZM162.696 26.273H190.901V25.6319H162.696V26.273Z" fill="white"/>
<path d="M170.307 20.9219H164.852V22.9693H170.307V20.9219Z" fill="white"/>
<path d="M170.369 23.0272H164.789V20.8555H170.369V23.0272ZM164.913 22.9094H170.244V20.9798H164.913V22.9094Z" fill="white"/>
<path d="M176.448 20.9219H170.992V22.9693H176.448V20.9219Z" fill="white"/>
<path d="M176.511 23.0272H170.938V20.8555H176.511V23.0272ZM171.055 22.9094H176.393V20.9798H171.055V22.9094Z" fill="white"/>
<path d="M182.588 20.9219H177.133V22.9693H182.588V20.9219Z" fill="white"/>
<path d="M182.658 23.0272H177.078V20.8555H182.658V23.0272ZM177.202 22.9094H182.54V20.9798H177.202V22.9094Z" fill="white"/>
<path d="M188.738 20.9219H183.289V22.9693H188.738V20.9219Z" fill="white"/>
<path d="M188.8 23.0272H183.227V20.8555H188.8V23.0272ZM183.351 22.9094H188.682V20.9798H183.351V22.9094Z" fill="white"/>
<path fill-rule="evenodd" clip-rule="evenodd" d="M189.328 23.0863H194.43V20.7969H189.328V23.0863ZM189.57 21.0389H194.188V22.8443H189.57V21.0389Z" fill="white"/>
<path d="M194.5 23.1454H189.273V20.7383H194.5V23.1454ZM189.391 23.0277H194.376V20.8626H189.391V23.0277ZM194.251 22.9034H189.509V20.9803H194.251V22.9034ZM189.633 22.7791H194.134V21.098H189.633V22.7791Z" fill="white"/>
<path fill-rule="evenodd" clip-rule="evenodd" d="M159.164 23.0863H164.279V20.7969H159.164V23.0863ZM159.406 21.0389H164.037V22.8443H159.406V21.0389Z" fill="white"/>
<path d="M164.327 23.1454H159.094V20.7383H164.327V23.1454ZM159.218 23.0277H164.209V20.8626H159.218V23.0277ZM164.091 22.9034H159.336V20.9803H164.091V22.9034ZM159.46 22.7791H163.973V21.098H159.46V22.7791Z" fill="white"/>
<path d="M158.711 20.9219H158.469V23.2048H158.711V20.9219Z" fill="white"/>
<path d="M158.774 23.2639H158.414V20.8633H158.774V23.2639ZM158.525 23.1462H158.65V20.981H158.525V23.1462Z" fill="white"/>
<path d="M195.14 20.9219H194.898V23.2048H195.14V20.9219Z" fill="white"/>
<path d="M195.196 23.2639H194.836V20.8633H195.196V23.2639ZM194.954 23.1462H195.071V20.981H194.954V23.1462Z" fill="white"/>
<path fill-rule="evenodd" clip-rule="evenodd" d="M184.773 15.6411C180.371 15.5822 175.962 15.5691 171.547 15.543C170.742 15.543 169.937 15.5495 169.133 15.5495L194.853 19.52C193.859 19.1145 192.858 18.722 191.85 18.3164C189.914 17.5577 187.965 16.7858 186.016 16.0205C185.61 15.8635 185.192 15.6345 184.773 15.6345" fill="black"/>
<path fill-rule="evenodd" clip-rule="evenodd" d="M185.024 8.87839C183.428 8.04111 181.838 7.21038 180.235 6.38619C180.078 6.30769 179.895 6.24882 179.719 6.24882C178.044 6.23574 176.37 6.26844 174.688 6.22266C174.42 6.22266 174.172 6.24882 173.93 6.28807L186.561 9.69604C186.051 9.41477 185.54 9.14004 185.03 8.87839" fill="black"/>
<path fill-rule="evenodd" clip-rule="evenodd" d="M176.86 1.8373L176.82 1.82422L176.846 3.51185H177.514C177.278 2.94931 177.075 2.38676 176.86 1.8373Z" fill="white"/>
<path fill-rule="evenodd" clip-rule="evenodd" d="M204.827 33.1117H206.796C206.05 32.837 204.663 32.3399 203.852 32.0521C201.929 31.3587 200.006 30.6719 198.083 29.972C196.055 29.2328 194.034 28.5002 192 27.761C191.679 27.6433 191.352 27.5255 191.038 27.4143C190.933 27.3751 190.829 27.3555 190.731 27.3555C182.515 27.3555 174.312 27.3555 166.109 27.3686L204.827 33.1052V33.1117Z" fill="black"/>
</g>
<defs>
<clipPath id="clip0_2172_1269">
<rect width="365" height="113.654" fill="white"/>
</clipPath>
</defs>
</svg>
