<svg width="365" height="51" viewBox="0 0 365 51" fill="none" xmlns="http://www.w3.org/2000/svg">
<g clip-path="url(#clip0_2172_1368)">
<path d="M365.004 48.6016H230.086V48.9918H365.004V48.6016Z" fill="white"/>
<path d="M364.999 14.1172H203.445V14.5074H364.999V14.1172Z" fill="white"/>
<path d="M161.936 14.1172H0.382812V14.5074H161.936V14.1172Z" fill="white"/>
<path d="M132.745 48.6016H0V48.9918H132.745V48.6016Z" fill="white"/>
<path d="M16.4775 42.1199V21.4658H18.2671C20.1508 21.4658 21.3887 21.7349 21.9741 22.2664C22.5594 22.7575 23.0505 23.9079 23.4407 25.7312H24.2211L24.026 20.0664H5.67948L5.48438 25.7312H6.26479C6.63482 23.8878 7.11922 22.7373 7.73144 22.2664C8.40421 21.7349 9.62866 21.4658 11.4048 21.4658H13.228V42.1199H16.4775Z" fill="white"/>
<path d="M26.1708 20.0664V20.6652C26.931 20.6652 27.5163 20.719 27.9267 20.8334C28.3371 20.941 28.6399 21.1428 28.835 21.4321C29.0301 21.7214 29.1445 22.0982 29.1781 22.5624C29.2117 23.0266 29.2252 23.6052 29.2252 24.2914V42.1132H32.2796V31.4901H42.2972V42.1132H45.3516V20.1H42.2972V30.2926H32.2796V20.0664H26.1641H26.1708Z" fill="white"/>
<path d="M59.0819 21.2639C59.8421 21.2639 60.4746 21.2976 60.9859 21.3649C61.4972 21.4321 61.921 21.5869 62.2709 21.8291C62.614 22.0713 62.8965 22.4346 63.0984 22.9122C63.3002 23.3899 63.4818 24.0492 63.6366 24.8969H64.2892L63.9999 20.0664H47.4766V20.6652C48.2368 20.6652 48.8221 20.719 49.2325 20.8334C49.6429 20.9477 49.9456 21.1428 50.1407 21.4321C50.3359 21.7214 50.4502 22.0982 50.4839 22.5624C50.5175 23.0266 50.531 23.6052 50.531 24.2914V42.1132H64.1614L65.2983 36.583H64.3901C64.1748 37.3634 63.9461 38.0227 63.7106 38.5677C63.4751 39.1126 63.1791 39.5634 62.8293 39.92C62.4794 40.2765 62.0623 40.5322 61.5779 40.6869C61.0868 40.8417 60.488 40.9224 59.7749 40.9224H57.2991C56.3639 40.9224 55.644 40.7878 55.1395 40.5255C54.6281 40.2563 54.2649 39.9267 54.0361 39.523C53.8074 39.1261 53.6795 38.7022 53.6459 38.2582C53.6123 37.8142 53.5988 37.424 53.5988 37.0943V31.2008H59.6134C60.0911 31.2008 60.488 31.2479 60.8042 31.3488C61.1204 31.4497 61.3492 31.6381 61.4904 31.914C61.6317 32.1898 61.699 32.6002 61.699 33.1317H62.2843V28.5366H61.699C61.699 28.9336 61.625 29.243 61.4703 29.4516C61.3155 29.6669 61.0868 29.8082 60.7706 29.8822C60.4544 29.9629 60.0574 29.9965 59.5865 29.9965H53.5988V21.2707H59.0954L59.0819 21.2639Z" fill="white"/>
<path d="M79.4442 20.0664V20.6652C80.2045 20.6652 80.7898 20.719 81.2002 20.8334C81.6106 20.941 81.9133 21.1428 82.1084 21.4321C82.3035 21.7214 82.4179 22.0982 82.4515 22.5624C82.4852 23.0266 82.4986 23.6052 82.4986 24.2914V42.1132H85.553V31.2546C86.5958 32.3445 87.5041 33.2864 88.2845 34.087C89.0649 34.8876 89.9059 35.7555 90.8074 36.6974C91.7089 37.6393 92.5499 38.5139 93.3303 39.3145C94.1107 40.1151 95.0189 41.0435 96.0617 42.1132H101.949V41.5144C101.296 41.4943 100.677 41.3664 100.092 41.131C99.5063 40.8955 98.9547 40.6062 98.4299 40.2496C97.9119 39.8931 97.4073 39.4961 96.9363 39.0521C96.4587 38.6081 95.9945 38.1506 95.537 37.6864L87.8943 29.8956L93.4581 24.1703C93.8079 23.8138 94.1982 23.4235 94.6287 23.0064C95.0593 22.5826 95.5235 22.1991 96.0079 21.856C96.499 21.5129 96.9969 21.2303 97.5217 21.0083C98.0397 20.7863 98.5712 20.6786 99.1161 20.6786V20.0799H95.7994L85.553 30.5079V20.0799H79.4375L79.4442 20.0664Z" fill="white"/>
<path d="M106.57 37.9108L107.842 34.8765H116.198L119.091 42.1156H121.95L113.264 20.0352H112.679L102.984 42.1156H108.353V41.5303C108.05 41.5101 107.754 41.4765 107.458 41.4294C107.162 41.389 106.9 41.315 106.658 41.2141C106.422 41.1199 106.227 40.9786 106.072 40.8104C105.918 40.6355 105.844 40.4 105.844 40.0905C105.844 39.7811 105.938 39.4178 106.119 38.9805C106.301 38.5432 106.449 38.1866 106.557 37.904M112.1 25.0002L115.774 33.7059H108.36L112.1 25.0002Z" fill="white"/>
<path d="M137.862 20.0664H119.515L119.32 25.7312H120.101C120.471 23.8878 120.955 22.7306 121.567 22.2664C122.24 21.7349 123.465 21.4658 125.241 21.4658H127.064V42.1132H130.313V21.4658H132.103C133.987 21.4658 135.225 21.7349 135.81 22.2664C136.395 22.7575 136.88 23.9079 137.27 25.7312H138.05L137.855 20.0664H137.862Z" fill="white"/>
<path d="M146.412 42.1199V31.4968H156.43V42.1199H159.484V20.1H156.43V30.2926H146.412V20.0664H140.297V20.6652C141.057 20.6652 141.642 20.719 142.053 20.8334C142.463 20.9477 142.766 21.1428 142.961 21.4321C143.156 21.7214 143.271 22.0982 143.304 22.5624C143.338 23.0266 143.351 23.6052 143.351 24.2914V42.1132H146.406L146.412 42.1199Z" fill="white"/>
<path d="M176.138 37.3231L168.334 20.0664H162.219V20.6652C162.892 20.6652 163.43 20.7257 163.847 20.8468C164.257 20.9679 164.567 21.1765 164.775 21.4658C164.984 21.7551 165.118 22.1251 165.179 22.5826C165.246 23.0401 165.28 23.5985 165.28 24.2645V42.1199H166.679V23.6657H166.747L175.008 42.1199H175.526L183.754 23.6657H183.822V42.1199H186.876V20.0664H183.848L176.138 37.3231Z" fill="white"/>
<path d="M198.999 20.0419L189.305 42.1223H194.673V41.537C194.371 41.5168 194.075 41.4832 193.779 41.4361C193.489 41.3957 193.22 41.3217 192.985 41.2275C192.749 41.1333 192.554 40.9921 192.399 40.8171C192.245 40.6422 192.171 40.4067 192.171 40.0973C192.171 39.7878 192.265 39.4245 192.447 38.9872C192.628 38.5499 192.776 38.1933 192.884 37.9108L194.155 34.8765H202.511L205.404 42.1156H208.263L199.578 20.0352H198.993L198.999 20.0419ZM194.673 33.7059L198.414 25.0002L202.087 33.7059H194.673Z" fill="white"/>
<path d="M225.112 36.5561H225.045L211.939 20.0664H206.477V20.6652C207.015 20.6652 207.526 20.7325 208.004 20.867C208.481 21.0016 208.892 21.2236 209.242 21.5331C209.591 21.8425 209.861 22.2596 210.056 22.7844C210.251 23.3092 210.345 23.9685 210.345 24.7691V42.1199H211.744V24.7691H211.812L225.926 42.49H226.512V20.0664H225.112V36.5561Z" fill="white"/>
<path d="M248.536 23.6792C247.991 22.9997 247.352 22.4077 246.619 21.8964C245.993 21.4725 245.3 21.1361 244.553 20.8805C243.806 20.6248 243.039 20.4432 242.259 20.3288C241.479 20.2144 240.692 20.1471 239.904 20.1135C239.11 20.0799 238.35 20.0664 237.61 20.0664H229.281V20.6652C230.041 20.6652 230.627 20.719 231.037 20.8334C231.448 20.941 231.75 21.1428 231.945 21.4321C232.141 21.7214 232.255 22.0982 232.289 22.5624C232.322 23.0266 232.336 23.6052 232.336 24.2914V42.1132H239.292C241.243 42.1132 242.945 41.8172 244.398 41.2319C245.852 40.6466 247.063 39.8392 248.045 38.8166C249.02 37.794 249.747 36.6166 250.225 35.2711C250.702 33.9255 250.938 32.4993 250.938 30.9923C250.938 30.1042 250.85 29.2296 250.675 28.3617C250.501 27.4938 250.238 26.6663 249.882 25.8792C249.525 25.092 249.074 24.3587 248.529 23.6792M246.746 34.8742C246.376 36.065 245.838 37.1078 245.118 38.0026C244.405 38.9041 243.517 39.6105 242.454 40.1352C241.391 40.66 240.167 40.9157 238.781 40.9157C238.216 40.9157 237.651 40.8753 237.092 40.8013C236.527 40.7206 235.962 40.6196 235.403 40.4851V25.8994C235.403 24.722 235.572 23.8205 235.908 23.1881C236.244 22.5557 236.621 22.0982 237.032 21.8223C237.442 21.5465 237.987 21.3581 238.66 21.2707C240.066 21.2707 241.317 21.5263 242.4 22.0376C243.484 22.5489 244.392 23.2486 245.118 24.1367C245.845 25.0247 246.39 26.0675 246.76 27.2651C247.13 28.4626 247.312 29.7409 247.312 31.0932C247.312 32.4454 247.13 33.6833 246.76 34.8742" fill="white"/>
<path d="M250.547 20.0681V20.6669C251.307 20.6669 251.892 20.7207 252.303 20.8351C252.713 20.9427 253.016 21.1446 253.211 21.4339C253.406 21.7232 253.521 22.0999 253.554 22.5641C253.588 23.0283 253.601 23.6069 253.601 24.2932V34.2166C253.601 35.3065 253.716 36.356 253.944 37.3652C254.173 38.3743 254.597 39.2691 255.209 40.0495C255.828 40.8299 256.676 41.4489 257.759 41.9131C258.842 42.3773 260.255 42.6128 261.991 42.6128C263.727 42.6128 265.065 42.3571 266.135 41.8458C267.211 41.3345 268.052 40.6752 268.671 39.8611C269.29 39.0471 269.714 38.1388 269.936 37.1297C270.165 36.1205 270.279 35.1114 270.279 34.1157V20.0951L268.88 20.0614V32.4875C268.88 32.9316 268.88 33.4227 268.867 33.9542C268.853 34.4857 268.819 35.0172 268.752 35.5487C268.685 36.0802 268.584 36.6049 268.443 37.1162C268.301 37.6275 268.1 38.085 267.844 38.482C267.218 39.4171 266.377 40.0966 265.321 40.5272C264.271 40.9578 263.215 41.1798 262.152 41.1798C261.607 41.1798 261.083 41.1192 260.558 40.9981C260.04 40.877 259.555 40.6819 259.111 40.4128C258.667 40.1437 258.27 39.8141 257.927 39.4104C257.577 39.0135 257.308 38.5358 257.113 37.9774C257.006 37.6881 256.925 37.3315 256.871 36.9144C256.817 36.4906 256.77 36.0465 256.743 35.5823C256.709 35.1181 256.689 34.6673 256.676 34.23C256.662 33.7995 256.662 33.416 256.662 33.0796V20.0547H250.547V20.0681Z" fill="white"/>
<path d="M295.447 29.6736C295.151 30.1311 294.794 30.4877 294.357 30.7568C293.926 31.0259 293.449 31.1537 292.924 31.1537C292.487 31.1537 292.07 31.1537 291.653 31.1403C291.242 31.1268 290.731 30.999 290.125 30.7568C290.125 31.0259 290.24 31.2546 290.468 31.443C290.697 31.6314 290.98 31.7861 291.316 31.9072C291.653 32.0283 292.002 32.1225 292.372 32.1898C292.742 32.2571 293.059 32.2907 293.314 32.2907C294.747 32.2907 295.898 32.0552 296.779 31.591C297.66 31.1268 298.333 30.5617 298.811 29.9091C299.288 29.2565 299.605 28.5905 299.773 27.9109C299.934 27.2314 300.015 26.673 300.015 26.229C300.015 25.4082 299.854 24.6278 299.524 23.881C299.201 23.1343 298.723 22.4817 298.091 21.9165C297.465 21.3514 296.665 20.9006 295.703 20.5643C294.741 20.2279 293.624 20.0664 292.366 20.0664H283.586V20.6652C284.346 20.6652 284.931 20.719 285.342 20.8334C285.752 20.9477 286.055 21.1428 286.25 21.4321C286.445 21.7214 286.56 22.0982 286.593 22.5624C286.627 23.0266 286.64 23.6052 286.64 24.2914V42.1132H289.695V24.2914C289.695 23.5581 289.775 22.993 289.937 22.596C290.098 22.1991 290.293 21.9098 290.522 21.7282C290.751 21.5532 290.986 21.4523 291.235 21.4321C291.484 21.412 291.706 21.3985 291.901 21.3985C292.594 21.3985 293.22 21.5331 293.772 21.8022C294.323 22.0645 294.788 22.4278 295.171 22.8853C295.548 23.3428 295.844 23.8676 296.052 24.4663C296.261 25.0651 296.362 25.711 296.362 26.3972C296.362 26.996 296.281 27.5813 296.12 28.1464C295.958 28.7115 295.73 29.2229 295.433 29.6803" fill="white"/>
<path d="M308.558 41.8064C309.937 42.4186 311.404 42.7213 312.964 42.7213C314.525 42.7213 315.999 42.4186 317.391 41.8064C318.777 41.1941 319.982 40.3666 321.004 39.3238C322.02 38.281 322.827 37.0566 323.426 35.6438C324.025 34.2377 324.321 32.7306 324.321 31.1294C324.321 29.5282 324.025 28.0212 323.426 26.6017C322.827 25.1821 322.02 23.9509 321.004 22.9014C319.982 21.8586 318.784 21.0311 317.412 20.4189C316.032 19.8067 314.566 19.5039 313.005 19.5039C311.444 19.5039 309.971 19.8067 308.578 20.4189C307.192 21.0311 305.988 21.8586 304.965 22.9014C303.943 23.9442 303.135 25.1687 302.543 26.5815C301.944 27.9943 301.648 29.4946 301.648 31.0958C301.648 32.697 301.944 34.204 302.543 35.6236C303.142 37.0431 303.949 38.2743 304.965 39.3238C305.981 40.3666 307.179 41.1941 308.558 41.8064ZM303.007 31.0285C303.007 29.8108 303.243 28.5594 303.707 27.2812C304.171 26.0029 304.817 24.8525 305.645 23.8366C306.465 22.814 307.441 21.9797 308.571 21.3406C309.702 20.6947 310.933 20.3785 312.278 20.3785C313.624 20.3785 314.794 20.7082 315.857 21.3608C316.92 22.0134 317.822 22.861 318.555 23.8904C319.295 24.9265 319.854 26.0769 320.244 27.3552C320.634 28.6334 320.829 29.905 320.829 31.1698C320.829 32.4346 320.634 33.6658 320.244 34.9306C319.854 36.1954 319.289 37.3459 318.555 38.3752C317.815 39.4113 316.92 40.2523 315.857 40.9048C314.794 41.5574 313.604 41.8871 312.278 41.8871C310.953 41.8871 309.695 41.5507 308.571 40.8847C307.441 40.2186 306.466 39.3642 305.631 38.3214C304.797 37.2786 304.151 36.1147 303.694 34.8432C303.236 33.5649 303.007 32.2933 303.007 31.0285Z" fill="white"/>
<path d="M329.318 21.8308C329.661 21.5214 330.064 21.2792 330.522 21.1177C330.979 20.9495 331.43 20.8688 331.888 20.8688C332.776 20.8688 333.576 21.037 334.296 21.3666C335.009 21.703 335.628 22.147 336.146 22.7189C336.664 23.284 337.075 23.9568 337.364 24.7305C337.653 25.5109 337.835 26.3317 337.902 27.1928H338.488L338.588 21.1648C338.198 21.4339 337.828 21.5415 337.485 21.5012C337.135 21.4541 336.806 21.3532 336.496 21.185C336.18 21.0168 335.897 20.8351 335.635 20.6333C335.373 20.4315 335.151 20.2902 334.955 20.2027C334.565 20.048 334.128 19.9 333.637 19.7721C333.146 19.6376 332.614 19.5703 332.029 19.5703C331.181 19.5703 330.387 19.7183 329.641 20.0009C328.894 20.2902 328.228 20.6938 327.656 21.2186C327.084 21.7434 326.633 22.3556 326.304 23.0687C325.981 23.7819 325.812 24.5556 325.812 25.4033C325.812 26.5133 326.088 27.4687 326.64 28.2693C327.192 29.0699 327.891 29.783 328.739 30.4154C329.587 31.0478 330.488 31.6264 331.457 32.1445C332.419 32.6692 333.327 33.2007 334.175 33.7457C335.023 34.2906 335.722 34.8759 336.274 35.5083C336.826 36.1407 337.102 36.8808 337.102 37.7218C337.102 38.3205 336.981 38.8453 336.745 39.3028C336.51 39.7603 336.187 40.137 335.783 40.433C335.379 40.7358 334.922 40.9578 334.404 41.0991C333.886 41.2404 333.354 41.3144 332.809 41.3144C332.332 41.3144 331.753 41.2336 331.067 41.0789C330.387 40.9242 329.721 40.6214 329.082 40.1774C328.443 39.7333 327.871 39.1009 327.373 38.2802C326.875 37.4594 326.559 36.3829 326.431 35.0508H325.846V40.7156C326.472 40.7156 326.99 40.7694 327.394 40.8636C327.797 40.9645 328.134 41.0789 328.403 41.2134C328.672 41.348 328.907 41.4893 329.102 41.6306C329.297 41.7718 329.506 41.8929 329.721 41.9804C330.152 42.1351 330.643 42.2764 331.181 42.411C331.726 42.5455 332.372 42.6128 333.132 42.6128C334.175 42.6128 335.124 42.4446 335.978 42.115C336.833 41.7853 337.573 41.3211 338.192 40.7358C338.81 40.1505 339.288 39.471 339.625 38.704C339.961 37.937 340.129 37.123 340.129 36.2551C340.129 35.1652 339.833 34.2233 339.234 33.4227C338.636 32.6221 337.902 31.909 337.021 31.2766C336.146 30.6442 335.184 30.0723 334.141 29.561C333.099 29.0497 332.143 28.5317 331.262 28.0136C330.387 27.4956 329.647 26.9372 329.049 26.3519C328.45 25.7666 328.154 25.0803 328.154 24.2999C328.154 23.8088 328.261 23.358 328.477 22.9342C328.692 22.5103 328.975 22.147 329.324 21.8376" fill="white"/>
<path d="M351.407 42.1199V21.4658H353.197C355.081 21.4658 356.318 21.7349 356.904 22.2664C357.489 22.7575 357.98 23.9079 358.37 25.7312H359.151L358.956 20.0664H340.609L340.414 25.7312H341.194C341.565 23.8878 342.049 22.7373 342.661 22.2664C343.334 21.7349 344.558 21.4658 346.334 21.4658H348.158V42.1199H351.407Z" fill="white"/>
<path d="M139.594 49.2418L139.54 49.5782L139.473 49.2755L138.989 47.5195H138.706L138.208 49.2755L138.141 49.5715L138.094 49.2418L137.697 47.5195H137.367L137.973 50.029H138.275L138.807 48.2058L138.847 48.0107L138.888 48.2058L139.406 50.029H139.708L140.314 47.5195H139.984L139.594 49.2418Z" fill="white"/>
<path d="M143.15 47.5273H142.82V50.0368H143.15V47.5273Z" fill="white"/>
<path d="M145.625 47.7954H146.426V50.029H146.755V47.7954H147.563V47.5195H145.625V47.7954Z" fill="white"/>
<path d="M151.648 48.6027H150.383V47.5195H150.047V50.029H150.383V48.8718H151.648V50.029H151.978V47.5195H151.648V48.6027Z" fill="white"/>
<path d="M156.134 47.6324C155.98 47.5382 155.805 47.4844 155.603 47.4844C155.401 47.4844 155.233 47.5315 155.078 47.6324C154.923 47.7333 154.802 47.8746 154.722 48.0562C154.641 48.2446 154.594 48.4532 154.594 48.6954V48.877C154.594 49.1125 154.641 49.321 154.722 49.5027C154.809 49.6843 154.923 49.8189 155.078 49.9198C155.233 50.014 155.408 50.0678 155.603 50.0678C155.798 50.0678 155.98 50.0207 156.134 49.9198C156.289 49.8256 156.404 49.6843 156.484 49.5027C156.565 49.321 156.605 49.1058 156.605 48.8568V48.6954C156.605 48.4532 156.565 48.2379 156.484 48.0495C156.404 47.8679 156.282 47.7266 156.128 47.6257M156.282 48.877C156.282 49.1663 156.215 49.3883 156.101 49.5498C155.986 49.7045 155.818 49.7853 155.603 49.7853C155.388 49.7853 155.226 49.7045 155.105 49.5363C154.984 49.3681 154.923 49.1461 154.923 48.8568V48.6685C154.923 48.3859 154.991 48.1639 155.105 48.0091C155.226 47.8477 155.388 47.7737 155.596 47.7737C155.805 47.7737 155.98 47.8544 156.101 48.0091C156.222 48.1706 156.282 48.3993 156.282 48.6954V48.8837V48.877Z" fill="white"/>
<path d="M160.667 49.2217C160.667 49.4033 160.619 49.5446 160.519 49.6455C160.418 49.7464 160.276 49.7935 160.088 49.7935C159.9 49.7935 159.758 49.7397 159.657 49.6455C159.556 49.5446 159.509 49.4033 159.509 49.2217V47.5195H159.18V49.2284C159.18 49.484 159.267 49.6926 159.429 49.8406C159.59 49.9886 159.812 50.0626 160.088 50.0626H160.175C160.431 50.0424 160.626 49.955 160.774 49.807C160.922 49.659 160.996 49.4638 160.996 49.2284V47.5195H160.667V49.2217Z" fill="white"/>
<path d="M163.43 47.7954H164.237V50.029H164.567V47.7954H165.374V47.5195H163.43V47.7954Z" fill="white"/>
<path d="M170.781 50.029H171.111V48.9256H172.167V48.6498H171.111V47.7954H172.335V47.5195H170.781V50.029Z" fill="white"/>
<path d="M175.181 48.8718H176.271V48.6027H175.181V47.7886H176.426V47.5195H174.852V50.029H176.446V49.7599H175.181V48.8718Z" fill="white"/>
<path d="M179.69 47.5195L178.734 50.029H179.077L179.313 49.3697H180.362L180.605 50.029H180.941L179.979 47.5195H179.69ZM179.414 49.1073L179.838 47.9299L180.268 49.1073H179.414Z" fill="white"/>
<path d="M184.979 48.6823C185.06 48.568 185.107 48.4334 185.107 48.272C185.107 48.023 185.033 47.8414 184.879 47.7068C184.724 47.579 184.509 47.5117 184.226 47.5117H183.398V50.0212H183.728V49.0053H184.32L184.865 50.0212H185.222V50.001L184.63 48.938C184.778 48.8774 184.899 48.7967 184.979 48.6756M184.239 48.7429H183.728V47.7876H184.233C184.408 47.7876 184.542 47.8279 184.636 47.9154C184.731 47.9961 184.778 48.1172 184.778 48.272C184.778 48.4132 184.731 48.5276 184.63 48.6151C184.529 48.7025 184.401 48.7429 184.239 48.7429Z" fill="white"/>
<path d="M192.127 47.6324C191.972 47.5382 191.797 47.4844 191.595 47.4844C191.393 47.4844 191.225 47.5315 191.07 47.6324C190.916 47.7333 190.801 47.8746 190.714 48.0562C190.633 48.2446 190.586 48.4532 190.586 48.6954V48.877C190.586 49.1125 190.633 49.321 190.714 49.5027C190.801 49.6843 190.916 49.8189 191.07 49.9198C191.225 50.014 191.4 50.0678 191.595 50.0678C191.79 50.0678 191.972 50.0207 192.127 49.9198C192.281 49.8256 192.396 49.6843 192.476 49.5027C192.557 49.321 192.598 49.1058 192.598 48.8568V48.6954C192.598 48.4532 192.557 48.2379 192.476 48.0495C192.396 47.8679 192.275 47.7266 192.12 47.6257M192.281 48.877C192.281 49.1663 192.221 49.3883 192.1 49.5498C191.985 49.7045 191.817 49.7853 191.602 49.7853C191.387 49.7853 191.225 49.7045 191.104 49.5363C190.983 49.3681 190.922 49.1461 190.922 48.8568V48.6685C190.922 48.3859 190.99 48.1639 191.111 48.0091C191.232 47.8477 191.393 47.7737 191.602 47.7737C191.81 47.7737 191.985 47.8544 192.106 48.0091C192.227 48.1706 192.288 48.3993 192.288 48.6954V48.8837L192.281 48.877Z" fill="white"/>
<path d="M196.808 48.6823C196.888 48.568 196.935 48.4334 196.935 48.272C196.935 48.023 196.861 47.8414 196.707 47.7068C196.552 47.579 196.337 47.5117 196.054 47.5117H195.227V50.0212H195.556V49.0053H196.148L196.693 50.0212H197.05V50.001L196.458 48.938C196.606 48.8774 196.727 48.7967 196.808 48.6756M196.068 48.7429H195.556V47.7876H196.061C196.236 47.7876 196.37 47.8279 196.464 47.9154C196.559 47.9961 196.606 48.1172 196.606 48.272C196.606 48.4132 196.559 48.5276 196.458 48.6151C196.364 48.7025 196.229 48.7429 196.068 48.7429Z" fill="white"/>
<path d="M202.508 50.029H202.837V48.9256H203.887V48.6498H202.837V47.7954H204.062V47.5195H202.508V50.029Z" fill="white"/>
<path d="M206.994 47.5195L206.039 50.029H206.382L206.618 49.3697H207.667L207.909 50.029H208.246L207.284 47.5195H206.994ZM206.719 49.1073L207.142 47.9299L207.573 49.1073H206.719Z" fill="white"/>
<path d="M211.382 49.5917L210.669 47.5195H210.312L211.241 50.029H211.53L212.465 47.5195H212.102L211.382 49.5917Z" fill="white"/>
<path d="M216.353 47.6324C216.198 47.5382 216.023 47.4844 215.822 47.4844C215.62 47.4844 215.452 47.5315 215.297 47.6324C215.142 47.7333 215.028 47.8746 214.94 48.0562C214.86 48.2446 214.812 48.4532 214.812 48.6954V48.877C214.812 49.1125 214.86 49.321 214.94 49.5027C215.028 49.6843 215.142 49.8189 215.297 49.9198C215.452 50.014 215.627 50.0678 215.822 50.0678C216.017 50.0678 216.198 50.0207 216.353 49.9198C216.508 49.8256 216.622 49.6843 216.703 49.5027C216.784 49.321 216.824 49.1058 216.824 48.8568V48.6954C216.824 48.4532 216.784 48.2379 216.703 48.0495C216.622 47.8679 216.501 47.7266 216.346 47.6257M216.501 48.877C216.501 49.1663 216.441 49.3883 216.32 49.5498C216.205 49.7045 216.037 49.7853 215.822 49.7853C215.606 49.7853 215.445 49.7045 215.324 49.5363C215.203 49.3681 215.142 49.1461 215.142 48.8568V48.6685C215.142 48.3859 215.209 48.1639 215.324 48.0091C215.445 47.8477 215.606 47.7737 215.815 47.7737C216.023 47.7737 216.198 47.8544 216.32 48.0091C216.441 48.1706 216.501 48.3993 216.501 48.6954V48.8837V48.877Z" fill="white"/>
<path d="M220.879 49.2217C220.879 49.4033 220.831 49.5446 220.731 49.6455C220.63 49.7464 220.488 49.7935 220.3 49.7935C220.112 49.7935 219.97 49.7397 219.876 49.6455C219.775 49.5446 219.728 49.4033 219.728 49.2217V47.5195H219.398V49.2284C219.398 49.484 219.486 49.6926 219.647 49.8406C219.809 49.9886 220.031 50.0626 220.307 50.0626H220.394C220.65 50.0424 220.845 49.955 220.993 49.807C221.141 49.659 221.215 49.4638 221.215 49.2284V47.5195H220.885V49.2217H220.879Z" fill="white"/>
<path d="M225.433 48.6823C225.513 48.568 225.56 48.4334 225.56 48.272C225.56 48.023 225.486 47.8414 225.332 47.7068C225.177 47.579 224.962 47.5117 224.679 47.5117H223.852V50.0212H224.181V49.0053H224.773L225.318 50.0212H225.675V50.001L225.083 48.938C225.231 48.8774 225.352 48.7967 225.433 48.6756M224.686 48.7429H224.174V47.7876H224.679C224.854 47.7876 224.989 47.8279 225.076 47.9154C225.17 47.9961 225.217 48.1172 225.217 48.272C225.217 48.4132 225.17 48.5276 225.069 48.6151C224.968 48.7025 224.841 48.7429 224.679 48.7429" fill="white"/>
<path d="M196.42 14.1406H168.594V14.2348H196.42V14.1406Z" fill="white"/>
<path d="M183.459 1.95097L183.762 1.64822L183.695 1.58095L183.419 1.85678H181.569L181.293 1.57422L181.219 1.64822L181.528 1.95097H183.459Z" fill="white"/>
<path d="M179.88 8.4375H177.68V9.26501H179.88V8.4375Z" fill="white"/>
<path d="M182.364 8.4375H180.164V9.26501H182.364V8.4375Z" fill="white"/>
<path d="M184.833 8.4375H182.633V9.26501H184.833V8.4375Z" fill="white"/>
<path d="M187.31 8.4375H185.117V9.26501H187.31V8.4375Z" fill="white"/>
<path d="M175.105 9.35269H175.206V8.48481H175.388V9.31232H177.447V8.39062H173.578V8.49154H175.105V9.35942V9.35269ZM175.482 8.48481H177.352V9.21141H175.482V8.48481Z" fill="white"/>
<path d="M189.896 9.35161V8.48373H191.416V8.38281H187.555V9.30451H189.613V8.477H189.802V9.34488H189.896V9.35161ZM189.512 9.21032H187.649V8.48373H189.512V9.21032Z" fill="white"/>
<path d="M185.715 6.02611V5.64935L187.235 4.61328H177.756L179.277 5.64935V6.01938L173.578 8.13862H191.407L185.708 6.01938L185.715 6.02611ZM179.384 5.73681H185.621V5.95883H179.384V5.73681ZM180.387 6.2683C182.163 6.27503 183.946 6.28176 185.715 6.30194C185.883 6.30194 186.051 6.39613 186.22 6.45668C187.007 6.76616 187.787 7.07563 188.574 7.38511C188.978 7.54657 189.382 7.70131 189.785 7.86951L179.418 6.2683C179.741 6.2683 180.064 6.2683 180.387 6.2683Z" fill="white"/>
<path d="M183.763 2.22656H181.233L177.203 4.29871H187.799L183.769 2.22656H183.763ZM181.65 2.50913C182.33 2.52931 183.002 2.50913 183.682 2.51586C183.749 2.51586 183.83 2.54277 183.89 2.56968C184.536 2.90606 185.182 3.23572 185.821 3.57884C186.03 3.68648 186.232 3.79413 186.44 3.9085L181.347 2.53604C181.448 2.52258 181.549 2.50913 181.657 2.50913" fill="white"/>
<path d="M182.502 0L181.93 1.62811H183.067L182.495 0H182.502ZM182.508 0.740051C182.508 0.740051 182.515 0.740051 182.522 0.740051C182.609 0.962067 182.697 1.19081 182.784 1.41955H182.515V0.740051H182.508Z" fill="white"/>
<path d="M188.297 10.6852V10.295L189.744 9.50781H175.232L176.678 10.295V10.6919L168.578 13.7261H196.404L188.297 10.6919V10.6852ZM175.622 9.602H189.367L188.243 10.2142H176.752L175.622 9.602ZM176.786 10.3151H188.21V10.6246H176.786V10.3151ZM178.185 11.0417C181.495 11.0417 184.805 11.0417 188.115 11.0417C188.156 11.0417 188.196 11.0417 188.237 11.0619C188.364 11.1023 188.499 11.1494 188.627 11.2032C189.448 11.4992 190.262 11.7952 191.076 12.0913C191.849 12.3738 192.63 12.6497 193.403 12.9322C193.726 13.0466 194.285 13.2484 194.588 13.3628H193.794L178.179 11.0485L178.185 11.0417Z" fill="white"/>
</g>
<defs>
<clipPath id="clip0_2172_1368">
<rect width="365" height="50.0678" fill="white"/>
</clipPath>
</defs>
</svg>
