<svg width="170" height="33" viewBox="0 0 170 33" fill="none" xmlns="http://www.w3.org/2000/svg">
<path d="M31.2273 24.7368V0.518954H36.1516V24.7368H31.2273Z" fill="white"/>
<path d="M57.1409 16.8141H43.4777C43.4777 18.3018 43.9631 19.4781 44.8648 20.3084C45.7664 21.1733 46.9108 21.5885 48.3326 21.5885C49.4423 21.5885 50.3786 21.3117 51.1415 20.7582C51.9045 20.2046 52.4246 19.4435 52.6674 18.544H56.9675C56.7594 19.997 56.2392 21.2425 55.3723 22.2458C54.4706 23.2837 53.4303 24.0449 52.1819 24.5292C50.9335 25.0482 49.6504 25.2904 48.3326 25.2904C45.3503 25.2904 43.0268 24.46 41.3276 22.7994C39.5937 21.1387 38.7614 18.7861 38.7614 15.7416C38.7614 13.8734 39.1429 12.2473 39.9058 10.7942C40.6687 9.37577 41.7437 8.26867 43.1309 7.50753C44.518 6.7464 46.1479 6.33124 48.0205 6.33124C49.8584 6.33124 51.4883 6.7464 52.8754 7.54213C54.2626 8.37246 55.3029 9.44496 56.0312 10.8288C56.7594 12.2127 57.1409 13.735 57.1409 15.3956V16.8141ZM44.8301 11.1056C43.9978 11.8321 43.547 12.8355 43.4777 14.1501H52.2859C52.1819 12.8701 51.7311 11.8667 50.9335 11.1402C50.1359 10.4137 49.1302 10.0331 47.9165 10.0331C46.668 10.0331 45.6277 10.4137 44.8301 11.1056Z" fill="white"/>
<path d="M60.7106 16.5373C61.8896 15.6378 63.7276 15.188 66.155 15.188C68.3744 15.2226 69.9003 15.0497 70.8019 14.6345C71.6689 14.2539 72.1197 13.5966 72.1197 12.6971C72.1197 12.0051 71.8076 11.3824 71.2181 10.8288C70.5939 10.3099 69.6575 10.0331 68.3744 10.0331C67.022 10.0331 65.9817 10.4137 65.2534 11.1056C64.4905 11.8321 64.0744 12.8009 63.9703 13.9772H59.0807C59.15 12.5933 59.5315 11.3132 60.2251 10.1369C60.9186 8.9952 61.959 8.06108 63.3461 7.36915C64.6986 6.67721 66.3631 6.33124 68.3398 6.33124C71.2181 6.33124 73.3681 6.98858 74.8246 8.30326C76.2464 9.61794 76.9747 11.2786 76.9747 13.3198V24.7368H72.2584L72.1197 19.1667H71.9463C71.7036 21.1387 70.9753 22.661 69.7269 23.6989C68.4785 24.7714 66.8833 25.2904 64.976 25.2904C63.1727 25.2904 61.6816 24.8752 60.5718 24.0449C59.4621 23.2145 58.9073 21.969 58.9073 20.343C58.9073 18.7515 59.4968 17.4714 60.7106 16.5373ZM64.5945 21.5193C65.08 21.8999 65.7736 22.0728 66.6752 22.0728C67.6462 22.0728 68.5478 21.8653 69.3801 21.3809C70.2124 20.9311 70.8713 20.3084 71.3568 19.5473C71.8423 18.7861 72.1197 17.9904 72.1197 17.1255V14.3923H71.9463C71.8076 15.1535 71.5648 15.7762 71.2181 16.226C70.8713 16.7103 70.2818 17.0563 69.5188 17.2985C68.7559 17.5752 67.6809 17.7482 66.2938 17.8174C65.5308 17.8866 64.9413 18.0942 64.5252 18.4402C64.109 18.8207 63.901 19.3051 63.901 19.9278C63.901 20.6198 64.109 21.1387 64.5945 21.5193Z" fill="white"/>
<path d="M95.9382 7.50753C97.0826 8.26867 97.9842 9.37577 98.6431 10.7942C99.2673 12.2473 99.6141 13.908 99.6141 15.8108C99.6141 17.7482 99.2673 19.4089 98.6431 20.8273C97.9842 22.2804 97.0826 23.3875 95.9382 24.1487C94.7938 24.9098 93.4761 25.2904 92.0196 25.2904C90.4937 25.2904 89.1413 24.8406 87.9622 23.9065C86.7832 22.9724 85.9162 21.5885 85.4307 19.7548H85.2226V31.1026H80.2983V6.88479H85.0839L85.2226 11.9013H85.4307C85.9162 10.0677 86.7832 8.68383 87.9622 7.74971C89.1413 6.81559 90.4937 6.33124 92.0196 6.33124C93.4761 6.33124 94.7938 6.7464 95.9382 7.50753ZM93.372 20.2738C94.2043 19.2013 94.6551 17.7136 94.6551 15.8108C94.6551 13.9426 94.2043 12.4549 93.372 11.3824C92.5051 10.3099 91.3607 9.75633 89.9389 9.75633C88.5171 9.75633 87.3727 10.2407 86.5057 11.1748C85.6388 12.1435 85.2226 13.3198 85.2226 14.7729V16.8833C85.2226 18.3364 85.6388 19.5127 86.5057 20.4468C87.3727 21.4155 88.5171 21.8653 89.9389 21.8653C91.3607 21.8653 92.5051 21.3463 93.372 20.2738Z" fill="white"/>
<path d="M108.954 4.39381C108.538 4.73978 108.364 5.32793 108.364 6.19285V6.88479H113.74V9.92932H108.468V24.7368H103.544V9.92932H100.25V6.88479H103.544V6.19285C103.544 4.08244 104.064 2.52558 105.174 1.52227C106.284 0.518954 108.018 0 110.376 0C111.277 0 112.387 0.0345962 113.74 0.0691927V3.97865C112.491 3.94405 111.624 3.90945 111.208 3.90945C110.098 3.90945 109.335 4.08244 108.954 4.39381Z" fill="white"/>
<path d="M121.159 13.735C121.436 11.9359 121.818 10.5175 122.373 9.47956C122.893 8.47625 123.656 7.74971 124.661 7.26536C125.667 6.81559 127.054 6.57342 128.823 6.57342V10.725C126.881 10.8634 125.355 11.1056 124.28 11.5208C123.17 11.9359 122.373 12.5933 121.852 13.4928C121.297 14.3923 121.02 15.707 120.951 17.3677V24.7368H116.026V6.88479H120.812L120.951 13.735H121.159Z" fill="white"/>
<path d="M134.172 24.1487C132.681 23.3875 131.502 22.2458 130.635 20.7928C129.768 19.3397 129.352 17.679 129.352 15.7416C129.352 13.8734 129.768 12.2473 130.635 10.7942C131.502 9.37577 132.681 8.26867 134.172 7.50753C135.663 6.7464 137.327 6.33124 139.131 6.33124C140.934 6.33124 142.564 6.7464 144.055 7.50753C145.512 8.26867 146.691 9.37577 147.558 10.7942C148.425 12.2473 148.875 13.8734 148.875 15.7416C148.875 17.679 148.425 19.3397 147.592 20.7928C146.725 22.2458 145.546 23.3875 144.055 24.1487C142.564 24.9098 140.934 25.2904 139.131 25.2904C137.327 25.2904 135.663 24.9098 134.172 24.1487ZM142.599 20.0662C143.431 19.0975 143.882 17.6444 143.882 15.7416C143.882 13.908 143.431 12.4895 142.599 11.5208C141.766 10.5521 140.587 10.0677 139.131 10.0677C137.605 10.0677 136.426 10.5521 135.594 11.5208C134.761 12.4895 134.345 13.908 134.345 15.7416C134.345 17.6444 134.761 19.0975 135.594 20.0662C136.426 21.0695 137.605 21.5539 139.131 21.5539C140.587 21.5539 141.766 21.0695 142.599 20.0662Z" fill="white"/>
<path d="M169.215 7.61132L162.869 6.50422L162.834 6.7464C164.186 7.09237 165.296 7.74971 166.128 8.71843C166.961 9.68714 167.411 10.8288 167.411 12.1781C167.411 14.0464 166.683 15.4994 165.296 16.5719C163.874 17.6444 161.932 18.1634 159.435 18.1634C158.464 18.1634 157.528 18.0942 156.661 17.8866C156.106 18.0596 155.725 18.2672 155.517 18.4748C155.309 18.7169 155.205 19.0283 155.205 19.3743C155.205 19.824 155.378 20.17 155.794 20.4468C156.176 20.7236 156.731 20.8273 157.424 20.8273H162.348C164.568 20.8273 166.232 21.2771 167.377 22.1074C168.521 22.9724 169.111 24.3908 169.111 26.3283C169.111 28.2657 168.313 29.6842 166.718 30.6529C165.123 31.6216 162.799 32.1059 159.713 32.1059C156.384 32.1059 154.026 31.7946 152.638 31.1026C151.217 30.4107 150.523 29.3728 150.523 27.9889C150.523 26.0515 152.118 24.9098 155.378 24.633V24.4946C153.991 24.3562 152.916 23.9757 152.188 23.3529C151.459 22.7302 151.113 22.0036 151.113 21.1387C151.113 20.0662 151.529 19.2705 152.361 18.7169C153.193 18.1634 154.338 17.8866 155.794 17.8174V17.679C154.372 17.2639 153.297 16.5719 152.534 15.6032C151.772 14.6691 151.425 13.5274 151.425 12.1781C151.425 10.6213 151.98 9.34117 153.089 8.33786C154.199 7.33455 156.072 6.57342 158.777 6.08906C162.21 5.46631 165.677 4.73978 169.215 3.94405V7.61132ZM161.967 10.4483C161.343 9.99851 160.51 9.75633 159.435 9.75633C158.326 9.75633 157.493 9.99851 156.904 10.4483C156.28 10.898 156.002 11.4862 156.002 12.1781C156.002 12.9392 156.28 13.562 156.904 14.0464C157.493 14.5307 158.326 14.7383 159.435 14.7383C160.51 14.7383 161.343 14.5307 161.967 14.0464C162.556 13.562 162.869 12.9392 162.869 12.1781C162.869 11.4862 162.556 10.898 161.967 10.4483ZM156.384 24.5292C155.274 24.9098 154.754 25.5671 154.754 26.4666C154.754 27.1586 155.135 27.7121 155.933 28.0581C156.696 28.4387 157.979 28.6117 159.713 28.6117C161.516 28.6117 162.765 28.4387 163.527 28.0927C164.29 27.7467 164.672 27.1586 164.672 26.3975C164.672 25.7401 164.429 25.2558 164.013 24.9444C163.562 24.6676 162.869 24.4946 161.898 24.4946L156.384 24.5292Z" fill="white"/>
<path d="M25.5232 0C12.6251 0 0 12.5848 0 25.4633H7.23646C7.23646 16.5418 16.6217 7.25277 25.5232 7.25277V0Z" fill="#038E43"/>
</svg>
