<svg width="996" height="398" viewBox="0 0 996 398" fill="none" xmlns="http://www.w3.org/2000/svg">
<g clip-path="url(#clip0)">
<path fill-rule="evenodd" clip-rule="evenodd" d="M99.0308 101.572L99.0312 101.572L99.0314 101.572C124.72 118.928 154.133 138.8 176.038 154.078L135.371 177.427V147.634L135.371 141.788C135.371 140.232 133.687 139.261 132.341 140.039L90.935 163.974C90.3106 164.335 89.926 165.002 89.926 165.723V208.173L89.926 208.198V255.42L89.926 308.187C89.926 309.303 90.8303 310.207 91.9458 310.207H133.352C134.467 310.207 135.371 309.303 135.371 308.187V229.182L209.516 186.374L209.514 186.379L209.818 186.203C212.315 184.759 213.852 182.093 213.852 179.209V175.812L213.855 175.81L213.855 140.116C213.855 137.46 212.55 134.974 210.364 133.465L147.965 90.4161C147.627 90.1834 147.227 90.0588 146.818 90.0588L88.5884 90.0592C86.5972 90.0592 85.7984 92.629 87.4479 93.7442C91.1811 96.2682 95.0434 98.8778 98.994 101.547L99.0308 101.572L99.0308 101.572ZM296.275 286.452C286.609 286.452 277.282 279.445 277.282 265.259C277.282 250.902 286.609 244.236 296.275 244.236C306.11 244.236 315.267 250.902 315.267 265.259C315.267 279.616 306.11 286.452 296.275 286.452ZM296.275 220.308C271.177 220.308 251.506 238.938 251.506 265.259C251.506 291.58 271.177 310.38 296.275 310.38C321.542 310.38 341.043 291.58 341.043 265.259C341.043 238.938 321.542 220.308 296.275 220.308ZM242.969 222.872C241.273 222.359 238.729 222.018 236.186 222.018C229.403 222.018 218.719 224.752 214.31 234.323V222.872H189.382V307.816H215.158V270.728C215.158 253.808 224.485 247.655 234.829 247.655C237.373 247.655 240.086 247.826 242.969 248.509V222.872ZM393.756 342.854C369.506 342.854 354.074 327.813 351.7 312.602L374.424 306.107C376.12 314.311 382.903 320.293 392.569 320.293C405.456 320.293 413.427 313.969 413.427 298.587V294.656C410.374 299.271 403.082 304.227 390.873 304.227C368.488 304.227 351.7 286.452 351.7 262.866C351.7 240.476 367.81 221.334 390.873 221.334C404.609 221.334 411.9 227.487 414.275 231.931V222.872H438.863V297.22C438.863 321.661 425.297 342.854 393.756 342.854ZM377.476 262.866C377.476 274.488 385.277 281.667 395.621 281.667C406.135 281.667 413.596 274.488 413.596 262.866C413.596 251.244 405.287 244.066 395.621 244.066C385.955 244.066 377.476 251.244 377.476 262.866ZM514.228 222.872C512.532 222.359 509.988 222.018 507.444 222.018C500.661 222.018 489.978 224.752 485.569 234.323V222.872H460.641V307.816H486.417V270.728C486.417 253.808 495.744 247.655 506.088 247.655C508.631 247.655 511.345 247.826 514.228 248.509V222.872ZM554.606 310.209C536.122 310.209 525.438 297.903 525.438 284.401C525.438 269.361 536.461 260.815 550.366 258.764L570.207 255.688C574.785 255.004 576.312 252.782 576.312 249.877C576.312 244.92 572.072 240.647 563.932 240.647C554.945 240.647 550.027 246.8 549.518 253.124L527.134 248.509C528.152 236.374 539.344 220.308 564.102 220.308C591.404 220.308 601.409 235.691 601.409 253.124V294.656C601.409 301.322 602.257 306.962 602.427 307.816H579.194C579.025 307.133 578.347 304.056 578.347 298.245C573.938 305.424 565.798 310.209 554.606 310.209ZM550.875 282.692C550.875 287.136 553.758 291.409 560.88 291.409C568.511 291.409 576.312 287.649 576.312 274.488V270.728L560.371 273.292C554.945 274.146 550.875 276.71 550.875 282.692ZM648.874 307.816V258.935C648.874 251.244 653.792 244.236 662.779 244.236C672.106 244.236 676.346 250.56 676.346 258.593V307.816H701.782V258.764C701.782 251.244 706.7 244.236 715.857 244.236C725.014 244.236 729.254 250.56 729.254 258.593V307.816H754.182V252.782C754.182 229.709 738.92 220.308 722.979 220.308C711.618 220.308 703.478 224.069 696.865 233.64C692.625 225.265 683.977 220.308 671.937 220.308C662.779 220.308 651.926 225.094 647.687 232.614V222.872H623.098V307.816H648.874ZM906.426 285.427V307.816H835.712V284.914L872.849 245.091H836.729V222.872H905.747V244.236L866.914 285.427H906.426ZM807.085 307.641H777.448L786.168 251.953H777.448V220.917H815.752V251.953L807.085 307.641ZM777.448 164.843H815.752V201.564H777.448V164.843Z" fill="white"/>
</g>
<defs>
<clipPath id="clip0">
<path d="M0 0H996V398H0V0Z" fill="white"/>
</clipPath>
</defs>
</svg>
