<svg width="220" height="22" viewBox="0 0 220 22" fill="#ffffff" xmlns="http://www.w3.org/2000/svg">
    <path fill-rule="evenodd" clip-rule="evenodd" d="M13.0288 0.735424H0.0205078V21.2489H4.711V14.1818H13.0288C17.8758 14.1818 20.8465 11.6804 20.8465 7.61507V7.27113C20.8465 3.23715 17.8758 0.735424 13.0288 0.735424ZM16.0619 7.61507C16.0619 9.1787 14.9677 10.0231 12.9037 10.0231H4.711V4.89451H12.9037C14.9673 4.89451 16.0619 5.73887 16.0619 7.27113V7.61507Z"></path>
    <path fill-rule="evenodd" clip-rule="evenodd" d="M48.4887 20.5296L42.5161 13.8064C46.3936 13.275 48.5824 11.0235 48.5824 7.7088V7.36486C48.5824 3.23715 45.6426 0.735424 40.7647 0.735424H27.7564V21.2485H32.4469V13.8998H36.7311L43.1103 21.2485H48.4887V20.5296ZM40.6399 4.89451C42.7036 4.89451 43.7982 5.7075 43.7982 7.27113V7.61507C43.7982 9.1787 42.704 10.0231 40.6399 10.0231H32.4473V4.89451H40.6399Z"></path>
    <path fill-rule="evenodd" clip-rule="evenodd" d="M55.1487 10.867V11.1486C55.1487 17.5279 59.9643 21.6242 67.3754 21.6242C74.8178 21.6242 79.5706 17.5279 79.5706 11.1486V10.867C79.5706 4.48782 74.8178 0.360107 67.3754 0.360107C59.9643 0.360107 55.1487 4.48782 55.1487 10.867ZM74.7864 10.8361V11.2114C74.7864 15.1199 72.2223 17.2776 67.3754 17.278C62.5598 17.278 59.9329 15.1199 59.9329 11.2114V10.8361C59.9329 6.92719 62.5908 4.70704 67.3754 4.70704C72.1596 4.70704 74.7864 6.92719 74.7864 10.8361Z"></path>
    <path d="M86.0118 14.4947V14.1818H90.64V14.4947C90.64 16.496 92.6727 17.5592 96.5188 17.5592C99.9272 17.5592 101.741 16.8086 101.741 15.4014V15.183C101.741 14.057 100.865 13.5256 98.3326 13.1503L93.1107 12.3997C88.6391 11.7432 86.3566 9.92933 86.3566 6.83345V6.52049C86.3566 2.64299 89.8901 0.360107 96.0501 0.360107C102.523 0.360107 106.057 2.73673 106.057 7.17701V7.45859H101.428V7.17701C101.428 5.33218 99.646 4.42546 96.0501 4.42546C92.8295 4.42546 91.1094 5.11335 91.1094 6.39539V6.6456C91.1094 7.61507 91.9224 8.08412 94.2363 8.42807L99.4896 9.1787C104.274 9.86659 106.494 11.6804 106.494 14.9638V15.2767C106.494 19.2793 102.835 21.6246 96.3309 21.6246C89.5768 21.6242 86.0118 19.1538 86.0118 14.4947Z"></path>
    <path d="M113.873 0.735424H118.564V8.89711H129.915V0.735424H134.605V21.2489H129.915V13.0876H118.564V21.2489H113.873V0.735424Z"></path>
    <path fill-rule="evenodd" clip-rule="evenodd" d="M141.671 10.867V11.1486C141.671 17.5279 146.487 21.6242 153.898 21.6242C161.341 21.6242 166.093 17.5279 166.093 11.1486V10.867C166.093 4.48782 161.341 0.360107 153.898 0.360107C146.487 0.360107 141.671 4.48782 141.671 10.867ZM161.309 10.8361V11.2114C161.309 15.1199 158.745 17.2776 153.898 17.278C149.082 17.278 146.456 15.1199 146.456 11.2114V10.8361C146.456 6.92719 149.114 4.70704 153.898 4.70704C158.683 4.70704 161.309 6.92719 161.309 10.8361Z"></path>
    <path fill-rule="evenodd" clip-rule="evenodd" d="M193.892 20.5296L187.92 13.8064C191.797 13.275 193.986 11.0235 193.986 7.7088V7.36486C193.986 3.23715 191.047 0.735424 186.168 0.735424H173.16V21.2485H177.85V13.8998H182.134L188.514 21.2485H193.892V20.5296ZM186.044 4.89451C188.108 4.89451 189.202 5.7075 189.202 7.27113V7.61507C189.202 9.1787 188.108 10.0231 186.044 10.0231H177.851V4.89451H186.044Z"></path>
    <path d="M201.49 0.735424H219.721V4.86314H206.181V8.92849H219.096V13.0248H206.181V17.1212H219.721V21.2489H201.49V0.735424Z"></path>
</svg>