<svg width="1023" height="126" viewBox="0 0 1023 126" fill="none" xmlns="http://www.w3.org/2000/svg">
<path d="M140.77 0C140.76 21.85 123.06 39.54 101.22 39.54C124.9 39.54 144.09 58.7402 144.09 82.4102C144.09 83.5301 144.05 84.6403 143.96 85.7402C142.26 107.86 123.78 125.29 101.22 125.29H3.33008C3.33008 103.73 20.56 86.22 42 85.75L41.7695 85.7402C18.5998 85.15 4.87086e-05 66.1799 0 42.8701C0 41.7501 0.039885 40.64 0.129883 39.54C1.79987 17.7802 19.7197 0.560227 41.7695 0H140.77ZM94.1201 39.6797C76.7606 44.2001 66.3595 44.2001 49 39.6797C53.5203 57.0391 53.5203 67.4405 49 84.7998C66.3594 80.2795 76.7607 80.2794 94.1201 84.7998C89.5998 67.4405 89.5998 57.0391 94.1201 39.6797Z" fill="white"/>
<path d="M580.44 14.0302H564.13V30.3401H580.44V14.0302Z" fill="white"/>
<path d="M251.92 43.8802C251.92 40.5902 250.53 37.8402 247.74 35.6102C244.96 33.3902 241.53 32.2702 237.46 32.2702C233.39 32.2702 229.97 33.1501 227.65 34.9001C225.34 36.6601 224.18 39.1102 224.18 42.2402C224.18 44.9302 225.02 47.1102 226.7 48.8002C228.38 50.4802 230.58 51.7202 233.29 52.5202C236 53.3202 238.98 54.0301 242.23 54.6501C245.48 55.2701 248.73 56.0902 251.98 57.1202C255.23 58.1502 258.22 59.5002 260.94 61.1802C263.67 62.8602 265.87 65.3902 267.55 68.7702C269.23 72.1502 270.07 76.2502 270.07 81.0702C270.07 89.3302 267.02 95.8702 260.93 100.69C254.84 105.51 247.01 107.92 237.45 107.92C227.89 107.92 220.29 105.42 214.45 100.41C208.6 95.4002 205.68 88.6002 205.68 80.0102H221.77C221.77 83.9002 223.23 87.1302 226.17 89.7002C229.1 92.2802 232.87 93.5702 237.46 93.5702C242.05 93.5702 245.9 92.4002 248.78 90.0702C251.66 87.7402 253.1 84.7402 253.1 81.0802C253.1 78.3202 252.26 76.0502 250.58 74.3002C248.9 72.5402 246.69 71.2602 243.97 70.4602C241.24 69.6602 238.25 68.9502 235 68.3302C231.75 67.7202 228.5 66.9102 225.25 65.9202C222 64.9302 219.02 63.6102 216.31 61.9702C213.6 60.3302 211.41 57.8302 209.73 54.4902C208.05 51.1402 207.21 47.0602 207.21 42.2402C207.21 34.6602 210.06 28.7102 215.76 24.3902C221.46 20.0702 228.7 17.9202 237.48 17.9202C246.26 17.9202 253.78 20.2202 259.48 24.8102C265.18 29.4102 268.03 35.7602 268.03 43.8602H251.93L251.92 43.8802Z" fill="white"/>
<path d="M349.16 79.9102H295.53C296.46 83.7202 298.67 86.9902 302.14 89.7202C305.62 92.4502 309.61 93.8102 314.13 93.8102C317.42 93.8102 320.36 93.0602 322.96 91.5702C325.56 90.0802 327.59 88.2202 329.04 86.0202H346.75C344.4 92.6702 340.23 97.9802 334.26 101.96C328.28 105.94 321.58 107.93 314.14 107.93C304.13 107.93 295.62 104.54 288.61 97.7602C281.6 90.9802 278.1 82.6202 278.1 72.6802C278.1 62.7402 281.62 54.4002 288.66 47.6602C295.7 40.9202 304.27 37.5502 314.36 37.5502C324.45 37.5502 332.64 40.9602 339.6 47.7802C346.57 54.6002 350.05 62.9002 350.05 72.6902C350.05 74.8202 349.75 77.2302 349.15 79.9202L349.16 79.9102ZM332.62 66.2402C331.76 62.0202 329.7 58.4802 326.46 55.6202C323.21 52.7602 319.17 51.3302 314.35 51.3302C309.53 51.3302 305.53 52.7602 302.13 55.6202C298.73 58.4802 296.6 62.0202 295.74 66.2402H332.62Z" fill="white"/>
<path d="M416.009 64.7902C414.479 60.9802 412.089 57.8602 408.839 55.4302C405.589 53.0002 401.629 51.7902 396.959 51.7902C390.759 51.7902 385.719 53.7802 381.859 57.7602C377.989 61.7402 376.059 66.7202 376.059 72.6902C376.059 78.6602 377.989 83.6502 381.859 87.6302C385.729 91.6102 390.759 93.6002 396.959 93.6002C401.629 93.6002 405.589 92.3902 408.839 89.9902C412.089 87.5802 414.479 84.4502 416.009 80.6002H432.879C431.269 89.0102 427.279 95.6602 420.889 100.58C414.499 105.49 406.519 107.95 396.959 107.95C386.009 107.95 376.979 104.6 369.859 97.8902C362.739 91.1802 359.189 82.7902 359.189 72.7002C359.189 62.6102 362.749 54.2202 369.859 47.5102C376.979 40.8102 386.009 37.4502 396.959 37.4502C406.529 37.4502 414.479 39.9102 420.829 44.8202C427.179 49.7302 431.199 56.3902 432.879 64.8002H416.009V64.7802V64.7902Z" fill="white"/>
<path d="M504.839 39.5101V105.97H488.529V95.7701H488.299C486.539 99.2801 484.019 102.19 480.729 104.48C477.439 106.78 473.539 107.93 469.019 107.93C461.359 107.93 455.139 105.31 450.359 100.06C445.579 94.8101 443.189 88.0201 443.189 79.6901V39.5101H459.499V78.5701C459.499 82.6401 460.909 86.1101 463.729 88.9701C466.549 91.8301 469.959 93.2601 473.959 93.2601C477.959 93.2601 481.479 91.8201 484.299 88.9401C487.119 86.0601 488.529 82.6101 488.529 78.5701V39.5101H504.839Z" fill="white"/>
<path d="M534.88 57.4701V105.98H518.57V39.5101H553.46V56.2401H534.88" fill="white"/>
<path d="M580.44 39.5101V105.97H564.13V39.5101H580.44Z" fill="white"/>
<path d="M592.16 39.5101V24.4901H608.47V39.5101H619.85V52.6201H608.47V87.4801C608.47 88.6401 608.86 89.6001 609.62 90.3701C610.39 91.1401 611.3 91.5201 612.34 91.5201H619.85V105.98H612.34C606.28 105.98 601.41 104.21 597.71 100.66C594.01 97.1101 592.16 92.3501 592.16 86.3701V39.5201V39.5101Z" fill="white"/>
<path d="M659.35 125.59H642.59L650.71 104.46L625.49 39.5101H642.35L659 83.8401H659.23L675.76 39.5101H692.63L659.34 125.59H659.35Z" fill="white"/>
<path d="M760.53 70.2502C754.65 75.8702 747.5 78.6801 739.09 78.6801H717.52V105.97H701.21V19.8901H739.09C747.5 19.8901 754.64 22.7002 760.53 28.3202C766.41 33.9402 769.35 40.9301 769.35 49.2801C769.35 57.6301 766.41 64.6201 760.53 70.2401V70.2502ZM748.48 38.7201C745.88 35.8001 742.76 34.3501 739.09 34.3501H717.52V64.2201H739.09C742.75 64.2201 745.88 62.7601 748.48 59.8501C751.08 56.9301 752.38 53.4101 752.38 49.2901C752.38 45.1701 751.08 41.6401 748.48 38.7301V38.7201Z" fill="white"/>
<path d="M832.18 95.3302H831.949C829.819 98.8402 826.87 101.82 823.12 104.27C819.36 106.72 814.93 107.94 809.81 107.94C800.02 107.94 791.699 104.57 784.849 97.8202C777.989 91.0802 774.56 82.7002 774.56 72.6902C774.56 62.6802 777.989 54.4102 784.849 47.6702C791.699 40.9302 800.03 37.5602 809.81 37.5602C818.85 37.5602 826.229 41.4302 831.949 49.1602H832.18V39.5202H848.49V105.98H832.18V95.3401V95.3302ZM826.27 58.2902C822.33 54.2902 817.54 52.2902 811.89 52.2902C806.24 52.2902 801.49 54.3002 797.52 58.3202C793.54 62.3402 791.55 67.1302 791.55 72.6902C791.55 78.2502 793.54 83.2202 797.52 87.2302C801.5 91.2502 806.29 93.2602 811.89 93.2602C817.49 93.2602 822.37 91.2502 826.3 87.2302C830.22 83.2202 832.18 78.3702 832.18 72.6902C832.18 67.0102 830.21 62.2802 826.27 58.2902Z" fill="white"/>
<path d="M862.22 19.8901H878.53V105.97H862.22V19.8901Z" fill="white"/>
<path d="M967.619 19.8901H947.419L917.109 105.97H934.509L940.529 87.9602H974.499L980.569 105.97H997.969L967.619 19.8901ZM944.949 74.8102L957.159 38.4201H957.869L970.089 74.8102H944.949Z" fill="white"/>
<path d="M1006.54 19.8901V105.97H1022.9V19.8901H1006.54Z" fill="white"/>
</svg>
