
<svg width="183" height="40" viewBox="0 0 183 40" fill="none" xmlns="http://www.w3.org/2000/svg">
    <path d="M15.4531 7.4902H23.4162V15.4532H15.4531V7.4902Z" fill="#FF5A10"/>
    <path d="M7.47344 15.47H15.4365V23.4331H7.47344V15.47Z" fill="#FF5A10"/>
    <path fill-rule="evenodd" clip-rule="evenodd" d="M0 7.49086C4.13709 7.49086 7.49086 4.13709 7.49086 0H15.4533C15.4533 8.53465 8.53465 15.4533 0 15.4533V7.49086Z" fill="#FF5A10"/>
    <path fill-rule="evenodd" clip-rule="evenodd" d="M22.927 30.9239C18.7899 30.9239 15.4362 27.5702 15.4362 23.4331L7.47344 23.4331C7.47344 31.9677 14.3924 38.8864 22.927 38.8864V30.9239Z" fill="#FF5A10"/>
    <path d="M36.1473 11.1153V6.62993H57.28V11.1153H49.4024V32.3611H44.0249V11.1153H36.1473Z" fill="#FFFFFF"/>
    <path d="M63.5369 32.7254C62.3056 32.7254 61.2084 32.5118 60.2451 32.0847C59.2819 31.6491 58.5196 31.0083 57.9585 30.1624C57.4056 29.308 57.1292 28.2443 57.1292 26.9711C57.1292 25.899 57.3261 24.9985 57.7197 24.2698C58.1134 23.5411 58.6495 22.9548 59.3279 22.5109C60.0064 22.0669 60.777 21.7319 61.6397 21.5057C62.5108 21.2796 63.4238 21.1205 64.3787 21.0283C65.5011 20.911 66.4057 20.8022 67.0925 20.7016C67.7793 20.5928 68.2777 20.4336 68.5876 20.2242C68.8975 20.0148 69.0525 19.7049 69.0525 19.2945V19.2191C69.0525 18.4234 68.8012 17.8077 68.2987 17.3722C67.8045 16.9366 67.1009 16.7189 66.1879 16.7189C65.2247 16.7189 64.4583 16.9324 63.8887 17.3596C63.3191 17.7784 62.9422 18.3061 62.7579 18.9427L57.8077 18.5406C58.059 17.368 58.5532 16.3545 59.2902 15.5001C60.0273 14.6374 60.978 13.9757 62.1423 13.515C63.3149 13.046 64.6718 12.8114 66.213 12.8114C67.2852 12.8114 68.3112 12.9371 69.2912 13.1884C70.2796 13.4396 71.1549 13.8291 71.9171 14.3568C72.6877 14.8845 73.295 15.563 73.7389 16.3922C74.1828 17.213 74.4048 18.1972 74.4048 19.3447V32.3611H69.3289V29.6849H69.1781C68.8682 30.288 68.4536 30.8199 67.9343 31.2806C67.415 31.7329 66.791 32.0888 66.0623 32.3485C65.3335 32.5998 64.4918 32.7254 63.5369 32.7254ZM65.0697 29.0316C65.857 29.0316 66.5523 28.8766 67.1553 28.5667C67.7584 28.2484 68.2317 27.8213 68.5751 27.2852C68.9185 26.7491 69.0902 26.1419 69.0902 25.4634V23.4155C68.9227 23.5244 68.6923 23.6249 68.3992 23.717C68.1144 23.8008 67.7919 23.8803 67.4317 23.9557C67.0716 24.0227 66.7114 24.0856 66.3512 24.1442C65.9911 24.1944 65.6644 24.2405 65.3712 24.2824C64.743 24.3745 64.1944 24.5211 63.7253 24.7221C63.2563 24.9232 62.8919 25.1954 62.6323 25.5388C62.3726 25.8738 62.2428 26.2926 62.2428 26.7952C62.2428 27.5239 62.5066 28.0809 63.0343 28.4662C63.5704 28.8431 64.2488 29.0316 65.0697 29.0316Z" fill="#FFFFFF"/>
    <path d="M83.9095 21.2042V32.3611H78.5572V13.0627H83.6582V16.4676H83.8843C84.3115 15.3452 85.0277 14.4573 86.0328 13.804C87.0379 13.1423 88.2566 12.8114 89.6889 12.8114C91.0291 12.8114 92.1975 13.1046 93.1943 13.6909C94.191 14.2772 94.9658 15.1148 95.5186 16.2037C96.0714 17.2842 96.3479 18.5741 96.3479 20.0734V32.3611H90.9956V21.0283C91.004 19.8473 90.7024 18.9259 90.091 18.2642C89.4795 17.5941 88.6377 17.2591 87.5656 17.2591C86.8453 17.2591 86.2087 17.4141 85.6559 17.724C85.1114 18.0339 84.6842 18.4862 84.3743 19.0809C84.0728 19.6672 83.9178 20.375 83.9095 21.2042Z" fill="#FFFFFF"/>
    <path d="M109.261 40C107.527 40 106.04 39.7613 104.8 39.2839C103.569 38.8148 102.589 38.174 101.86 37.3616C101.132 36.5491 100.658 35.6361 100.441 34.6226L105.391 33.9567C105.542 34.342 105.78 34.7022 106.107 35.0372C106.434 35.3722 106.865 35.6403 107.401 35.8413C107.946 36.0507 108.607 36.1554 109.386 36.1554C110.55 36.1554 111.51 35.8706 112.263 35.3011C113.026 34.7399 113.407 33.7976 113.407 32.4741V28.9437H113.181C112.946 29.4797 112.594 29.9865 112.125 30.4639C111.656 30.9413 111.053 31.3308 110.316 31.6324C109.579 31.9339 108.699 32.0847 107.677 32.0847C106.228 32.0847 104.909 31.7496 103.72 31.0795C102.539 30.4011 101.596 29.3666 100.893 27.9762C100.198 26.5774 99.8501 24.8101 99.8501 22.6742C99.8501 20.4881 100.206 18.6621 100.918 17.1963C101.63 15.7305 102.576 14.6332 103.757 13.9045C104.947 13.1758 106.249 12.8114 107.665 12.8114C108.745 12.8114 109.65 12.9957 110.379 13.3643C111.107 13.7244 111.694 14.1767 112.138 14.7212C112.59 15.2572 112.938 15.7849 113.181 16.3042H113.382V13.0627H118.696V32.5495C118.696 34.1912 118.294 35.5649 117.49 36.6705C116.686 37.7762 115.572 38.6054 114.148 39.1582C112.732 39.7194 111.103 40 109.261 40ZM109.374 28.0642C110.236 28.0642 110.965 27.8506 111.56 27.4234C112.163 26.9879 112.624 26.368 112.942 25.5639C113.268 24.7515 113.432 23.7798 113.432 22.6491C113.432 21.5183 113.273 20.5383 112.954 19.7091C112.636 18.8715 112.175 18.2223 111.572 17.7617C110.969 17.301 110.236 17.0706 109.374 17.0706C108.494 17.0706 107.753 17.3094 107.15 17.7868C106.547 18.2558 106.09 18.9092 105.78 19.7468C105.47 20.5844 105.315 21.5518 105.315 22.6491C105.315 23.7631 105.47 24.7263 105.78 25.5388C106.099 26.3429 106.555 26.9669 107.15 27.4108C107.753 27.8464 108.494 28.0642 109.374 28.0642Z" fill="#FFFFFF"/>
    <path d="M122.955 32.3611V13.0627H128.308V32.3611H122.955ZM125.644 10.575C124.848 10.575 124.166 10.3112 123.596 9.7835C123.035 9.24744 122.754 8.60668 122.754 7.86121C122.754 7.12412 123.035 6.49173 123.596 5.96404C124.166 5.42797 124.848 5.15994 125.644 5.15994C126.44 5.15994 127.118 5.42797 127.679 5.96404C128.249 6.49173 128.534 7.12412 128.534 7.86121C128.534 8.60668 128.249 9.24744 127.679 9.7835C127.118 10.3112 126.44 10.575 125.644 10.575Z" fill="#FFFFFF"/>
    <path d="M132.696 32.3611V6.62993H138.048V16.3042H138.211C138.446 15.7849 138.785 15.2572 139.229 14.7212C139.681 14.1767 140.268 13.7244 140.988 13.3643C141.717 12.9957 142.621 12.8114 143.702 12.8114C145.109 12.8114 146.407 13.18 147.597 13.9171C148.786 14.6458 149.737 15.7472 150.449 17.2214C151.161 18.6872 151.517 20.5258 151.517 22.737C151.517 24.8897 151.169 26.7073 150.474 28.1898C149.787 29.664 148.849 30.7822 147.659 31.5444C146.478 32.2982 145.155 32.6752 143.689 32.6752C142.651 32.6752 141.767 32.5035 141.038 32.16C140.318 31.8166 139.727 31.3853 139.267 30.8659C138.806 30.3383 138.454 29.8064 138.211 29.2703H137.972V32.3611H132.696ZM137.935 22.7119C137.935 23.8594 138.094 24.8603 138.412 25.7147C138.731 26.569 139.191 27.2349 139.794 27.7124C140.397 28.1814 141.13 28.416 141.993 28.416C142.864 28.416 143.601 28.1772 144.204 27.6998C144.807 27.214 145.264 26.5439 145.574 25.6896C145.892 24.8268 146.051 23.8343 146.051 22.7119C146.051 21.5979 145.896 20.6179 145.586 19.7719C145.276 18.9259 144.82 18.2642 144.217 17.7868C143.614 17.3094 142.872 17.0706 141.993 17.0706C141.122 17.0706 140.385 17.301 139.782 17.7617C139.187 18.2223 138.731 18.8757 138.412 19.7217C138.094 20.5676 137.935 21.5644 137.935 22.7119Z" fill="#FFFFFF"/>
    <path d="M160.44 6.62993V32.3611H155.088V6.62993H160.44Z" fill="#FFFFFF"/>
    <path d="M173.522 32.738C171.537 32.738 169.829 32.3359 168.396 31.5318C166.972 30.7194 165.875 29.5719 165.105 28.0893C164.334 26.5984 163.949 24.8352 163.949 22.7998C163.949 20.8147 164.334 19.0725 165.105 17.5732C165.875 16.0739 166.96 14.9054 168.359 14.0678C169.766 13.2302 171.416 12.8114 173.309 12.8114C174.582 12.8114 175.767 13.0167 176.864 13.4271C177.97 13.8291 178.933 14.4364 179.754 15.2489C180.583 16.0613 181.228 17.0832 181.689 18.3145C182.15 19.5374 182.38 20.9697 182.38 22.6114V24.0814H166.085V20.7645H177.342C177.342 19.9939 177.174 19.3112 176.839 18.7165C176.504 18.1218 176.039 17.657 175.445 17.3219C174.858 16.9785 174.176 16.8068 173.397 16.8068C172.584 16.8068 171.864 16.9953 171.236 17.3722C170.616 17.7407 170.13 18.2391 169.778 18.8673C169.427 19.4871 169.246 20.1781 169.238 20.9404V24.0939C169.238 25.0488 169.414 25.8738 169.766 26.5691C170.126 27.2643 170.633 27.8003 171.286 28.1772C171.939 28.5542 172.714 28.7426 173.61 28.7426C174.205 28.7426 174.75 28.6589 175.244 28.4913C175.738 28.3238 176.161 28.0725 176.513 27.7375C176.864 27.4025 177.132 26.992 177.317 26.5062L182.267 26.8329C182.016 28.0223 181.501 29.0609 180.722 29.9488C179.951 30.8283 178.954 31.5151 177.731 32.0093C176.517 32.4951 175.114 32.738 173.522 32.738Z" fill="#FFFFFF"/>
</svg>
